<?xml version="1.0" encoding="UTF-8" standalone="no"?>
<!DOCTYPE svg PUBLIC "-//W3C//DTD SVG 1.1//EN"
 "http://www.w3.org/Graphics/SVG/1.1/DTD/svg11.dtd">
<!-- Generated by graphviz version 14.1.3 (20260303.0454)
 -->
<!-- Title: fsm_pristup Pages: 1 -->
<svg width="795pt" height="1500pt"
 viewBox="0.00 0.00 795.00 1500.00" xmlns="http://www.w3.org/2000/svg" xmlns:xlink="http://www.w3.org/1999/xlink">
<g id="graph0" class="graph" transform="scale(3.77406 3.77406) rotate(0) translate(21.6 375.85)">
<title>fsm_pristup</title>
<polygon fill="#f8f8fc" stroke="none" points="-21.6,21.6 -21.6,-375.85 189.1,-375.85 189.1,21.6 -21.6,21.6"/>
<!-- start -->
<g id="node1" class="node">
<title>start</title>
<ellipse fill="#eae4ff" stroke="#8b6fcc" stroke-width="2.2" cx="72" cy="-336.25" rx="27" ry="18"/>
<text xml:space="preserve" text-anchor="middle" x="72" y="-332.75" font-family="Helvetica,sans-Serif" font-size="10.00">Štart</text>
</g>
<!-- s1 -->
<g id="node2" class="node">
<title>s1</title>
<path fill="#c8f5e8" stroke="#3aaf80" stroke-width="1.8" d="M87,-281.25C87,-281.25 57,-281.25 57,-281.25 51,-281.25 45,-275.25 45,-269.25 45,-269.25 45,-257.25 45,-257.25 45,-251.25 51,-245.25 57,-245.25 57,-245.25 87,-245.25 87,-245.25 93,-245.25 99,-251.25 99,-257.25 99,-257.25 99,-269.25 99,-269.25 99,-275.25 93,-281.25 87,-281.25"/>
<text xml:space="preserve" text-anchor="middle" x="72" y="-259.75" font-family="Helvetica,sans-Serif" font-size="10.00">Stav A</text>
</g>
<!-- start&#45;&gt;s1 -->
<g id="edge1" class="edge">
<title>start&#45;&gt;s1</title>
<path fill="none" stroke="#4a9fd4" stroke-width="1.2" d="M72,-317.45C72,-317.45 72,-291.45 72,-291.45"/>
<polygon fill="#4a9fd4" stroke="#4a9fd4" stroke-width="1.2" points="72,-283.45 75.6,-291.45 72.1,-285.99 72.1,-291.45 72,-291.45 71.9,-291.45 71.9,-285.99 68.4,-291.45 72,-283.45"/>
</g>
<!-- s2 -->
<g id="node3" class="node">
<title>s2</title>
<path fill="#c8f5e8" stroke="#3aaf80" stroke-width="1.8" d="M60,-199.5C60,-199.5 30,-199.5 30,-199.5 24,-199.5 18,-193.5 18,-187.5 18,-187.5 18,-175.5 18,-175.5 18,-169.5 24,-163.5 30,-163.5 30,-163.5 60,-163.5 60,-163.5 66,-163.5 72,-169.5 72,-175.5 72,-175.5 72,-187.5 72,-187.5 72,-193.5 66,-199.5 60,-199.5"/>
<text xml:space="preserve" text-anchor="middle" x="45" y="-178" font-family="Helvetica,sans-Serif" font-size="10.00">Stav B</text>
</g>
<!-- s1&#45;&gt;s2 -->
<g id="edge2" class="edge">
<title>s1&#45;&gt;s2</title>
<path fill="none" stroke="#e07a50" stroke-width="1.2" d="M63,-244.7C63,-244.7 63,-209.72 63,-209.72"/>
<polygon fill="#e07a50" stroke="#e07a50" stroke-width="1.2" points="63,-201.72 66.6,-209.72 63.1,-204.26 63.1,-209.72 63,-209.72 62.9,-209.72 62.9,-204.26 59.4,-209.72 63,-201.72"/>
<text xml:space="preserve" text-anchor="middle" x="18.75" y="-219.65" font-family="Helvetica,sans-Serif" font-size="8.00"> &#160;udalosť 1</text>
</g>
<!-- s2&#45;&gt;s1 -->
<g id="edge5" class="edge">
<title>s2&#45;&gt;s1</title>
<path fill="none" stroke="#e07a50" stroke-width="1.2" d="M54,-200.05C54,-200.05 54,-235.03 54,-235.03"/>
<polygon fill="#e07a50" stroke="#e07a50" stroke-width="1.2" points="54,-243.03 50.4,-235.03 53.9,-240.49 53.9,-235.03 54,-235.03 54.1,-235.03 54.1,-240.49 57.6,-235.03 54,-243.03"/>
<text xml:space="preserve" text-anchor="middle" x="90.75" y="-219.65" font-family="Helvetica,sans-Serif" font-size="8.00"> &#160;udalosť 4</text>
</g>
<!-- s3 -->
<g id="node4" class="node">
<title>s3</title>
<path fill="#c8f5e8" stroke="#3aaf80" stroke-width="1.8" d="M109,-117.75C109,-117.75 79,-117.75 79,-117.75 73,-117.75 67,-111.75 67,-105.75 67,-105.75 67,-93.75 67,-93.75 67,-87.75 73,-81.75 79,-81.75 79,-81.75 109,-81.75 109,-81.75 115,-81.75 121,-87.75 121,-93.75 121,-93.75 121,-105.75 121,-105.75 121,-111.75 115,-117.75 109,-117.75"/>
<text xml:space="preserve" text-anchor="middle" x="94" y="-96.25" font-family="Helvetica,sans-Serif" font-size="10.00">Stav C</text>
</g>
<!-- s2&#45;&gt;s3 -->
<g id="edge3" class="edge">
<title>s2&#45;&gt;s3</title>
<path fill="none" stroke="#e07a50" stroke-width="1.2" d="M72.65,-182C77.48,-182 81,-182 81,-182 81,-182 81,-127.88 81,-127.88"/>
<polygon fill="#e07a50" stroke="#e07a50" stroke-width="1.2" points="81,-119.88 84.6,-127.88 81.1,-122.41 81.1,-127.88 81,-127.88 80.9,-127.88 80.9,-122.41 77.4,-127.88 81,-119.88"/>
<text xml:space="preserve" text-anchor="middle" x="76.75" y="-137.9" font-family="Helvetica,sans-Serif" font-size="8.00"> &#160;udalosť 2</text>
</g>
<!-- s3&#45;&gt;s1 -->
<g id="edge4" class="edge">
<title>s3&#45;&gt;s1</title>
<path fill="none" stroke="#e07a50" stroke-width="1.2" d="M90,-118.51C90,-118.51 90,-235 90,-235"/>
<polygon fill="#e07a50" stroke="#e07a50" stroke-width="1.2" points="90,-243 86.4,-235 89.9,-240.46 89.9,-235 90,-235 90.1,-235 90.1,-240.46 93.6,-235 90,-243"/>
<text xml:space="preserve" text-anchor="middle" x="148.75" y="-178.78" font-family="Helvetica,sans-Serif" font-size="8.00"> &#160;udalosť 3</text>
</g>
<!-- end -->
<g id="node5" class="node">
<title>end</title>
<ellipse fill="#eae4ff" stroke="#8b6fcc" stroke-width="2.2" cx="94" cy="-18" rx="27.66" ry="18"/>
<text xml:space="preserve" text-anchor="middle" x="94" y="-14.5" font-family="Helvetica,sans-Serif" font-size="10.00">Koniec</text>
</g>
<!-- s3&#45;&gt;end -->
<g id="edge6" class="edge">
<title>s3&#45;&gt;end</title>
<path fill="none" stroke="#e07a50" stroke-width="1.2" d="M94,-81.2C94,-81.2 94,-46.51 94,-46.51"/>
<polygon fill="#e07a50" stroke="#e07a50" stroke-width="1.2" points="94,-38.51 97.6,-46.51 94.1,-41.04 94.1,-46.51 94,-46.51 93.9,-46.51 93.9,-41.04 90.4,-46.51 94,-38.51"/>
<text xml:space="preserve" text-anchor="middle" x="112.75" y="-56.15" font-family="Helvetica,sans-Serif" font-size="8.00"> &#160;udalosť 5</text>
</g>
</g>
</svg>
