<?xml version="1.0" encoding="UTF-8" standalone="no"?>
<!DOCTYPE svg PUBLIC "-//W3C//DTD SVG 1.1//EN"
 "http://www.w3.org/Graphics/SVG/1.1/DTD/svg11.dtd">
<!-- Generated by graphviz version 14.1.3 (20260303.0454)
 -->
<!-- Title: json_to_mqtt_flow Pages: 1 -->
<svg width="2250pt" height="179pt"
 viewBox="0.00 0.00 2250.00 179.00" xmlns="http://www.w3.org/2000/svg" xmlns:xlink="http://www.w3.org/1999/xlink">
<g id="graph0" class="graph" transform="scale(2.2174 2.2174) rotate(0) translate(21.6 59.1)">
<title>json_to_mqtt_flow</title>
<polygon fill="#f8f8fc" stroke="none" points="-21.6,21.6 -21.6,-59.1 993.1,-59.1 993.1,21.6 -21.6,21.6"/>
<!-- json -->
<g id="node1" class="node">
<title>json</title>
<path fill="#fff4ee" stroke="#f0a882" stroke-width="1.8" d="M63.25,-32.73C63.25,-34.53 49.08,-36 31.62,-36 14.17,-36 0,-34.53 0,-32.73 0,-32.73 0,-3.27 0,-3.27 0,-1.47 14.17,0 31.62,0 49.08,0 63.25,-1.47 63.25,-3.27 63.25,-3.27 63.25,-32.73 63.25,-32.73"/>
<path fill="none" stroke="#f0a882" stroke-width="1.8" d="M63.25,-32.73C63.25,-30.92 49.08,-29.45 31.62,-29.45 14.17,-29.45 0,-30.92 0,-32.73"/>
<text xml:space="preserve" text-anchor="middle" x="31.62" y="-14.5" font-family="Helvetica,sans-Serif" font-size="10.00">scene.json</text>
</g>
<!-- parser -->
<g id="node2" class="node">
<title>parser</title>
<path fill="#d0eeff" stroke="#4a9fd4" stroke-width="1.8" d="M195.25,-36C195.25,-36 147,-36 147,-36 141,-36 135,-30 135,-24 135,-24 135,-12 135,-12 135,-6 141,0 147,0 147,0 195.25,0 195.25,0 201.25,0 207.25,-6 207.25,-12 207.25,-12 207.25,-24 207.25,-24 207.25,-30 201.25,-36 195.25,-36"/>
<text xml:space="preserve" text-anchor="middle" x="171.12" y="-20.5" font-family="Helvetica,sans-Serif" font-size="10.00">SceneParser</text>
<text xml:space="preserve" text-anchor="middle" x="171.12" y="-8.5" font-family="Helvetica,sans-Serif" font-size="10.00">load_scene()</text>
</g>
<!-- json&#45;&gt;parser -->
<g id="edge1" class="edge">
<title>json&#45;&gt;parser</title>
<path fill="none" stroke="#4a9fd4" stroke-width="1.2" d="M63.98,-18C63.98,-18 124.81,-18 124.81,-18"/>
<polygon fill="#4a9fd4" stroke="#4a9fd4" stroke-width="1.2" points="132.81,-18 124.81,-21.6 130.27,-18.1 124.81,-18.1 124.81,-18 124.81,-17.9 130.27,-17.9 124.81,-14.4 132.81,-18"/>
<text xml:space="preserve" text-anchor="middle" x="99.12" y="-20.15" font-family="Helvetica,sans-Serif" font-size="8.00"> &#160;čítanie</text>
</g>
<!-- sm -->
<g id="node3" class="node">
<title>sm</title>
<path fill="#d0eeff" stroke="#4a9fd4" stroke-width="1.8" d="M349.75,-36C349.75,-36 297.75,-36 297.75,-36 291.75,-36 285.75,-30 285.75,-24 285.75,-24 285.75,-12 285.75,-12 285.75,-6 291.75,0 297.75,0 297.75,0 349.75,0 349.75,0 355.75,0 361.75,-6 361.75,-12 361.75,-12 361.75,-24 361.75,-24 361.75,-30 355.75,-36 349.75,-36"/>
<text xml:space="preserve" text-anchor="middle" x="323.75" y="-20.5" font-family="Helvetica,sans-Serif" font-size="10.00">StateMachine</text>
<text xml:space="preserve" text-anchor="middle" x="323.75" y="-8.5" font-family="Helvetica,sans-Serif" font-size="10.00">goto_state()</text>
</g>
<!-- parser&#45;&gt;sm -->
<g id="edge2" class="edge">
<title>parser&#45;&gt;sm</title>
<path fill="none" stroke="#4a9fd4" stroke-width="1.2" d="M208.07,-18C208.07,-18 275.55,-18 275.55,-18"/>
<polygon fill="#4a9fd4" stroke="#4a9fd4" stroke-width="1.2" points="283.55,-18 275.55,-21.6 281.01,-18.1 275.55,-18.1 275.55,-18 275.55,-17.9 281.01,-17.9 275.55,-14.4 283.55,-18"/>
<text xml:space="preserve" text-anchor="middle" x="246.5" y="-20.15" font-family="Helvetica,sans-Serif" font-size="8.00"> &#160;validácia</text>
</g>
<!-- executor -->
<g id="node4" class="node">
<title>executor</title>
<path fill="#d0eeff" stroke="#4a9fd4" stroke-width="1.8" d="M522.25,-36C522.25,-36 450.75,-36 450.75,-36 444.75,-36 438.75,-30 438.75,-24 438.75,-24 438.75,-12 438.75,-12 438.75,-6 444.75,0 450.75,0 450.75,0 522.25,0 522.25,0 528.25,0 534.25,-6 534.25,-12 534.25,-12 534.25,-24 534.25,-24 534.25,-30 528.25,-36 522.25,-36"/>
<text xml:space="preserve" text-anchor="middle" x="486.5" y="-20.5" font-family="Helvetica,sans-Serif" font-size="10.00">StateExecutor</text>
<text xml:space="preserve" text-anchor="middle" x="486.5" y="-8.5" font-family="Helvetica,sans-Serif" font-size="10.00">execute_onEnter()</text>
</g>
<!-- sm&#45;&gt;executor -->
<g id="edge3" class="edge">
<title>sm&#45;&gt;executor</title>
<path fill="none" stroke="#4a9fd4" stroke-width="1.2" d="M362.32,-18C362.32,-18 428.54,-18 428.54,-18"/>
<polygon fill="#4a9fd4" stroke="#4a9fd4" stroke-width="1.2" points="436.54,-18 428.54,-21.6 434,-18.1 428.54,-18.1 428.54,-18 428.54,-17.9 434,-17.9 428.54,-14.4 436.54,-18"/>
<text xml:space="preserve" text-anchor="middle" x="400.25" y="-29.9" font-family="Helvetica,sans-Serif" font-size="8.00"> &#160;onEnter</text>
<text xml:space="preserve" text-anchor="middle" x="400.25" y="-20.15" font-family="Helvetica,sans-Serif" font-size="8.00"> &#160;onExit</text>
</g>
<!-- client -->
<g id="node5" class="node">
<title>client</title>
<path fill="#eae4ff" stroke="#8b6fcc" stroke-width="1.8" d="M661,-36C661,-36 615.75,-36 615.75,-36 609.75,-36 603.75,-30 603.75,-24 603.75,-24 603.75,-12 603.75,-12 603.75,-6 609.75,0 615.75,0 615.75,0 661,0 661,0 667,0 673,-6 673,-12 673,-12 673,-24 673,-24 673,-30 667,-36 661,-36"/>
<text xml:space="preserve" text-anchor="middle" x="638.38" y="-20.5" font-family="Helvetica,sans-Serif" font-size="10.00">MQTTClient</text>
<text xml:space="preserve" text-anchor="middle" x="638.38" y="-8.5" font-family="Helvetica,sans-Serif" font-size="10.00">publish()</text>
</g>
<!-- executor&#45;&gt;client -->
<g id="edge4" class="edge">
<title>executor&#45;&gt;client</title>
<path fill="none" stroke="#3aaf80" stroke-width="1.2" d="M534.97,-18C534.97,-18 593.4,-18 593.4,-18"/>
<polygon fill="#3aaf80" stroke="#3aaf80" stroke-width="1.2" points="601.4,-18 593.4,-21.6 598.86,-18.1 593.4,-18.1 593.4,-18 593.4,-17.9 598.86,-17.9 593.4,-14.4 601.4,-18"/>
<text xml:space="preserve" text-anchor="middle" x="569" y="-29.9" font-family="Helvetica,sans-Serif" font-size="8.00"> &#160;action</text>
<text xml:space="preserve" text-anchor="middle" x="569" y="-20.15" font-family="Helvetica,sans-Serif" font-size="8.00"> &#160;mqtt</text>
</g>
<!-- broker -->
<g id="node6" class="node">
<title>broker</title>
<polygon fill="#fff8c0" stroke="#c8a000" stroke-width="1.8" points="829,-36 753.75,-36 753.75,0 829,0 829,-36"/>
<text xml:space="preserve" text-anchor="middle" x="791.38" y="-20.5" font-family="Helvetica,sans-Serif" font-size="10.00">MQTT Broker</text>
<text xml:space="preserve" text-anchor="middle" x="791.38" y="-8.5" font-family="Helvetica,sans-Serif" font-size="10.00">Mosquitto</text>
</g>
<!-- client&#45;&gt;broker -->
<g id="edge5" class="edge">
<title>client&#45;&gt;broker</title>
<path fill="none" stroke="#3aaf80" stroke-width="1.2" d="M673.86,-18C673.86,-18 743.4,-18 743.4,-18"/>
<polygon fill="#3aaf80" stroke="#3aaf80" stroke-width="1.2" points="751.4,-18 743.4,-21.6 748.87,-18.1 743.4,-18.1 743.4,-18 743.4,-17.9 748.87,-17.9 743.4,-14.4 751.4,-18"/>
<text xml:space="preserve" text-anchor="middle" x="713.38" y="-29.9" font-family="Helvetica,sans-Serif" font-size="8.00"> &#160;topic</text>
<text xml:space="preserve" text-anchor="middle" x="713.38" y="-20.15" font-family="Helvetica,sans-Serif" font-size="8.00"> &#160;message</text>
</g>
<!-- device -->
<g id="node7" class="node">
<title>device</title>
<path fill="#ffe8d8" stroke="#e07a50" stroke-width="1.8" d="M959.5,-36C959.5,-36 923.25,-36 923.25,-36 917.25,-36 911.25,-30 911.25,-24 911.25,-24 911.25,-12 911.25,-12 911.25,-6 917.25,0 923.25,0 923.25,0 959.5,0 959.5,0 965.5,0 971.5,-6 971.5,-12 971.5,-12 971.5,-24 971.5,-24 971.5,-30 965.5,-36 959.5,-36"/>
<text xml:space="preserve" text-anchor="middle" x="941.38" y="-20.5" font-family="Helvetica,sans-Serif" font-size="10.00">ESP32</text>
<text xml:space="preserve" text-anchor="middle" x="941.38" y="-8.5" font-family="Helvetica,sans-Serif" font-size="10.00">zariadenie</text>
</g>
<!-- broker&#45;&gt;device -->
<g id="edge6" class="edge">
<title>broker&#45;&gt;device</title>
<path fill="none" stroke="#7dd4b0" stroke-width="1.2" stroke-dasharray="5,2" d="M829.61,-18C829.61,-18 901.3,-18 901.3,-18"/>
<polygon fill="#7dd4b0" stroke="#7dd4b0" stroke-width="1.2" points="909.3,-18 901.3,-21.6 906.76,-18.1 901.3,-18.1 901.3,-18 901.3,-17.9 906.76,-17.9 901.3,-14.4 909.3,-18"/>
<text xml:space="preserve" text-anchor="middle" x="870.12" y="-20.15" font-family="Helvetica,sans-Serif" font-size="8.00"> &#160;subscribe</text>
</g>
</g>
</svg>
