<?xml version="1.0" encoding="UTF-8" standalone="no"?>
<!DOCTYPE svg PUBLIC "-//W3C//DTD SVG 1.1//EN"
 "http://www.w3.org/Graphics/SVG/1.1/DTD/svg11.dtd">
<!-- Generated by graphviz version 14.1.3 (20260303.0454)
 -->
<!-- Title: json_to_mqtt_execution Pages: 1 -->
<svg width="413pt" height="1442pt"
 viewBox="0.00 0.00 413.00 1442.00" xmlns="http://www.w3.org/2000/svg" xmlns:xlink="http://www.w3.org/1999/xlink">
<g id="graph0" class="graph" transform="scale(1.22464 1.22464) rotate(0) translate(21.6 1155.61)">
<title>json_to_mqtt_execution</title>
<polygon fill="#f8f8fc" stroke="none" points="-21.6,21.6 -21.6,-1155.61 315.34,-1155.61 315.34,21.6 -21.6,21.6"/>
<!-- tick -->
<g id="node1" class="node">
<title>tick</title>
<ellipse fill="#eae4ff" stroke="#8b6fcc" stroke-width="2.2" cx="202.23" cy="-1111.39" rx="62.23" ry="22.63"/>
<text xml:space="preserve" text-anchor="middle" x="202.23" y="-1113.89" font-family="Helvetica,sans-Serif" font-size="10.00">process_scene()</text>
<text xml:space="preserve" text-anchor="middle" x="202.23" y="-1101.89" font-family="Helvetica,sans-Serif" font-size="10.00">tick</text>
</g>
<!-- check_audio -->
<g id="node2" class="node">
<title>check_audio</title>
<polygon fill="#d0eeff" stroke="#4a9fd4" stroke-width="1.8" points="248.86,-1039.76 155.61,-1039.76 155.61,-1003.76 248.86,-1003.76 248.86,-1039.76"/>
<polygon fill="none" stroke="#4a9fd4" stroke-width="1.8" points="252.86,-1043.76 151.61,-1043.76 151.61,-999.76 252.86,-999.76 252.86,-1043.76"/>
<text xml:space="preserve" text-anchor="middle" x="202.23" y="-1024.26" font-family="Helvetica,sans-Serif" font-size="10.00">audio_handler</text>
<text xml:space="preserve" text-anchor="middle" x="202.23" y="-1012.26" font-family="Helvetica,sans-Serif" font-size="10.00">.check_if_ended()</text>
</g>
<!-- tick&#45;&gt;check_audio -->
<g id="edge1" class="edge">
<title>tick&#45;&gt;check_audio</title>
<path fill="none" stroke="#4a9fd4" stroke-width="1.2" d="M202.23,-1087.84C202.23,-1087.84 202.23,-1053.99 202.23,-1053.99"/>
<polygon fill="#4a9fd4" stroke="#4a9fd4" stroke-width="1.2" points="202.23,-1045.99 205.83,-1053.99 202.33,-1048.53 202.33,-1053.99 202.23,-1053.99 202.13,-1053.99 202.13,-1048.53 198.63,-1053.99 202.23,-1045.99"/>
</g>
<!-- get_state -->
<g id="node3" class="node">
<title>get_state</title>
<path fill="#c8f5e8" stroke="#3aaf80" stroke-width="1.8" d="M226.73,-954.76C226.73,-954.76 177.73,-954.76 177.73,-954.76 171.73,-954.76 165.73,-948.76 165.73,-942.76 165.73,-942.76 165.73,-930.76 165.73,-930.76 165.73,-924.76 171.73,-918.76 177.73,-918.76 177.73,-918.76 226.73,-918.76 226.73,-918.76 232.73,-918.76 238.73,-924.76 238.73,-930.76 238.73,-930.76 238.73,-942.76 238.73,-942.76 238.73,-948.76 232.73,-954.76 226.73,-954.76"/>
<text xml:space="preserve" text-anchor="middle" x="202.23" y="-939.26" font-family="Helvetica,sans-Serif" font-size="10.00">get_current</text>
<text xml:space="preserve" text-anchor="middle" x="202.23" y="-927.26" font-family="Helvetica,sans-Serif" font-size="10.00">_state_data()</text>
</g>
<!-- check_audio&#45;&gt;get_state -->
<g id="edge2" class="edge">
<title>check_audio&#45;&gt;get_state</title>
<path fill="none" stroke="#4a9fd4" stroke-width="1.2" d="M202.23,-998.98C202.23,-998.98 202.23,-965.04 202.23,-965.04"/>
<polygon fill="#4a9fd4" stroke="#4a9fd4" stroke-width="1.2" points="202.23,-957.04 205.83,-965.04 202.33,-959.58 202.33,-965.04 202.23,-965.04 202.13,-965.04 202.13,-959.58 198.63,-965.04 202.23,-957.04"/>
</g>
<!-- timeline -->
<g id="node4" class="node">
<title>timeline</title>
<polygon fill="#d0eeff" stroke="#4a9fd4" stroke-width="1.8" points="253.73,-869.76 150.73,-869.76 150.73,-833.76 253.73,-833.76 253.73,-869.76"/>
<polygon fill="none" stroke="#4a9fd4" stroke-width="1.8" points="257.73,-873.76 146.73,-873.76 146.73,-829.76 257.73,-829.76 257.73,-873.76"/>
<text xml:space="preserve" text-anchor="middle" x="202.23" y="-854.26" font-family="Helvetica,sans-Serif" font-size="10.00">check_and_execute</text>
<text xml:space="preserve" text-anchor="middle" x="202.23" y="-842.26" font-family="Helvetica,sans-Serif" font-size="10.00">_timeline()</text>
</g>
<!-- get_state&#45;&gt;timeline -->
<g id="edge3" class="edge">
<title>get_state&#45;&gt;timeline</title>
<path fill="none" stroke="#4a9fd4" stroke-width="1.2" d="M202.23,-917.9C202.23,-917.9 202.23,-883.96 202.23,-883.96"/>
<polygon fill="#4a9fd4" stroke="#4a9fd4" stroke-width="1.2" points="202.23,-875.96 205.83,-883.96 202.33,-878.5 202.33,-883.96 202.23,-883.96 202.13,-883.96 202.13,-878.5 198.63,-883.96 202.23,-875.96"/>
</g>
<!-- transitions -->
<g id="node5" class="node">
<title>transitions</title>
<polygon fill="#d0eeff" stroke="#4a9fd4" stroke-width="1.8" points="252.98,-780.76 151.48,-780.76 151.48,-744.76 252.98,-744.76 252.98,-780.76"/>
<polygon fill="none" stroke="#4a9fd4" stroke-width="1.8" points="256.98,-784.76 147.48,-784.76 147.48,-740.76 256.98,-740.76 256.98,-784.76"/>
<text xml:space="preserve" text-anchor="middle" x="202.23" y="-765.26" font-family="Helvetica,sans-Serif" font-size="10.00">TransitionManager</text>
<text xml:space="preserve" text-anchor="middle" x="202.23" y="-753.26" font-family="Helvetica,sans-Serif" font-size="10.00">.check_transitions()</text>
</g>
<!-- timeline&#45;&gt;transitions -->
<g id="edge4" class="edge">
<title>timeline&#45;&gt;transitions</title>
<path fill="none" stroke="#4a9fd4" stroke-width="1.2" d="M202.23,-829.3C202.23,-829.3 202.23,-794.98 202.23,-794.98"/>
<polygon fill="#4a9fd4" stroke="#4a9fd4" stroke-width="1.2" points="202.23,-786.98 205.83,-794.98 202.33,-789.52 202.33,-794.98 202.23,-794.98 202.13,-794.98 202.13,-789.52 198.63,-794.98 202.23,-786.98"/>
</g>
<!-- fired -->
<g id="node6" class="node">
<title>fired</title>
<polygon fill="#fff8c0" stroke="#c8a000" stroke-width="1.8" points="202.23,-695.76 144.98,-668.26 202.23,-640.76 259.48,-668.26 202.23,-695.76"/>
<text xml:space="preserve" text-anchor="middle" x="202.23" y="-670.41" font-family="Helvetica,sans-Serif" font-size="8.00">Prechod</text>
<text xml:space="preserve" text-anchor="middle" x="202.23" y="-660.66" font-family="Helvetica,sans-Serif" font-size="8.00">aktivovaný?</text>
</g>
<!-- transitions&#45;&gt;fired -->
<g id="edge5" class="edge">
<title>transitions&#45;&gt;fired</title>
<path fill="none" stroke="#4a9fd4" stroke-width="1.2" d="M202.23,-739.88C202.23,-739.88 202.23,-706.13 202.23,-706.13"/>
<polygon fill="#4a9fd4" stroke="#4a9fd4" stroke-width="1.2" points="202.23,-698.13 205.83,-706.13 202.33,-700.67 202.33,-706.13 202.23,-706.13 202.13,-706.13 202.13,-700.67 198.63,-706.13 202.23,-698.13"/>
</g>
<!-- change -->
<g id="node7" class="node">
<title>change</title>
<path fill="#c8f5e8" stroke="#3aaf80" stroke-width="1.8" d="M136.11,-582.38C136.11,-582.38 74.36,-582.38 74.36,-582.38 68.36,-582.38 62.36,-576.38 62.36,-570.38 62.36,-570.38 62.36,-558.38 62.36,-558.38 62.36,-552.38 68.36,-546.38 74.36,-546.38 74.36,-546.38 136.11,-546.38 136.11,-546.38 142.11,-546.38 148.11,-552.38 148.11,-558.38 148.11,-558.38 148.11,-570.38 148.11,-570.38 148.11,-576.38 142.11,-582.38 136.11,-582.38"/>
<text xml:space="preserve" text-anchor="middle" x="105.23" y="-560.88" font-family="Helvetica,sans-Serif" font-size="10.00">_change_state()</text>
</g>
<!-- fired&#45;&gt;change -->
<g id="edge6" class="edge">
<title>fired&#45;&gt;change</title>
<path fill="none" stroke="#e07a50" stroke-width="1.2" d="M164.85,-657.88C164.85,-631.51 164.85,-564 164.85,-564 164.85,-564 158.33,-564 158.33,-564"/>
<polygon fill="#e07a50" stroke="#e07a50" stroke-width="1.2" points="150.33,-564 158.33,-560.4 152.87,-563.9 158.33,-563.9 158.33,-564 158.33,-564.1 152.87,-564.1 158.33,-567.6 150.33,-564"/>
<text xml:space="preserve" text-anchor="middle" x="146.23" y="-611.16" font-family="Helvetica,sans-Serif" font-size="8.00"> &#160;áno</text>
</g>
<!-- no_change -->
<g id="node14" class="node">
<title>no_change</title>
<ellipse fill="#eae4ff" stroke="#8b6fcc" stroke-width="2.2" cx="235.23" cy="-564.38" rx="58.51" ry="22.63"/>
<text xml:space="preserve" text-anchor="middle" x="235.23" y="-566.88" font-family="Helvetica,sans-Serif" font-size="10.00">return True</text>
<text xml:space="preserve" text-anchor="middle" x="235.23" y="-554.88" font-family="Helvetica,sans-Serif" font-size="10.00">(žiadna zmena)</text>
</g>
<!-- fired&#45;&gt;no_change -->
<g id="edge7" class="edge">
<title>fired&#45;&gt;no_change</title>
<path fill="none" stroke="#e07a50" stroke-width="1.2" d="M218.1,-647.74C218.1,-647.74 218.1,-596.49 218.1,-596.49"/>
<polygon fill="#e07a50" stroke="#e07a50" stroke-width="1.2" points="218.1,-588.49 221.7,-596.49 218.2,-591.03 218.2,-596.49 218.1,-596.49 218,-596.49 218,-591.03 214.5,-596.49 218.1,-588.49"/>
<text xml:space="preserve" text-anchor="middle" x="242.73" y="-611.16" font-family="Helvetica,sans-Serif" font-size="8.00"> &#160;nie</text>
</g>
<!-- on_exit -->
<g id="node8" class="node">
<title>on_exit</title>
<path fill="#c8f5e8" stroke="#3aaf80" stroke-width="1.8" d="M137.98,-496.75C137.98,-496.75 72.48,-496.75 72.48,-496.75 66.48,-496.75 60.48,-490.75 60.48,-484.75 60.48,-484.75 60.48,-472.75 60.48,-472.75 60.48,-466.75 66.48,-460.75 72.48,-460.75 72.48,-460.75 137.98,-460.75 137.98,-460.75 143.98,-460.75 149.98,-466.75 149.98,-472.75 149.98,-472.75 149.98,-484.75 149.98,-484.75 149.98,-490.75 143.98,-496.75 137.98,-496.75"/>
<text xml:space="preserve" text-anchor="middle" x="105.23" y="-481.25" font-family="Helvetica,sans-Serif" font-size="10.00">execute_onExit()</text>
<text xml:space="preserve" text-anchor="middle" x="105.23" y="-469.25" font-family="Helvetica,sans-Serif" font-size="10.00">actuálny stav</text>
</g>
<!-- change&#45;&gt;on_exit -->
<g id="edge8" class="edge">
<title>change&#45;&gt;on_exit</title>
<path fill="none" stroke="#4a9fd4" stroke-width="1.2" d="M105.23,-545.8C105.23,-545.8 105.23,-507.06 105.23,-507.06"/>
<polygon fill="#4a9fd4" stroke="#4a9fd4" stroke-width="1.2" points="105.23,-499.06 108.83,-507.06 105.33,-501.59 105.33,-507.06 105.23,-507.06 105.13,-507.06 105.13,-501.59 101.63,-507.06 105.23,-499.06"/>
</g>
<!-- goto -->
<g id="node9" class="node">
<title>goto</title>
<path fill="#c8f5e8" stroke="#3aaf80" stroke-width="1.8" d="M131.23,-415.75C131.23,-415.75 79.23,-415.75 79.23,-415.75 73.23,-415.75 67.23,-409.75 67.23,-403.75 67.23,-403.75 67.23,-391.75 67.23,-391.75 67.23,-385.75 73.23,-379.75 79.23,-379.75 79.23,-379.75 131.23,-379.75 131.23,-379.75 137.23,-379.75 143.23,-385.75 143.23,-391.75 143.23,-391.75 143.23,-403.75 143.23,-403.75 143.23,-409.75 137.23,-415.75 131.23,-415.75"/>
<text xml:space="preserve" text-anchor="middle" x="105.23" y="-400.25" font-family="Helvetica,sans-Serif" font-size="10.00">StateMachine</text>
<text xml:space="preserve" text-anchor="middle" x="105.23" y="-388.25" font-family="Helvetica,sans-Serif" font-size="10.00">.goto_state()</text>
</g>
<!-- on_exit&#45;&gt;goto -->
<g id="edge9" class="edge">
<title>on_exit&#45;&gt;goto</title>
<path fill="none" stroke="#4a9fd4" stroke-width="1.2" d="M105.23,-459.97C105.23,-459.97 105.23,-425.9 105.23,-425.9"/>
<polygon fill="#4a9fd4" stroke="#4a9fd4" stroke-width="1.2" points="105.23,-417.9 108.83,-425.9 105.33,-420.44 105.33,-425.9 105.23,-425.9 105.13,-425.9 105.13,-420.44 101.63,-425.9 105.23,-417.9"/>
</g>
<!-- on_enter -->
<g id="node10" class="node">
<title>on_enter</title>
<path fill="#c8f5e8" stroke="#3aaf80" stroke-width="1.8" d="M140.98,-334.75C140.98,-334.75 69.48,-334.75 69.48,-334.75 63.48,-334.75 57.48,-328.75 57.48,-322.75 57.48,-322.75 57.48,-310.75 57.48,-310.75 57.48,-304.75 63.48,-298.75 69.48,-298.75 69.48,-298.75 140.98,-298.75 140.98,-298.75 146.98,-298.75 152.98,-304.75 152.98,-310.75 152.98,-310.75 152.98,-322.75 152.98,-322.75 152.98,-328.75 146.98,-334.75 140.98,-334.75"/>
<text xml:space="preserve" text-anchor="middle" x="105.23" y="-319.25" font-family="Helvetica,sans-Serif" font-size="10.00">execute_onEnter()</text>
<text xml:space="preserve" text-anchor="middle" x="105.23" y="-307.25" font-family="Helvetica,sans-Serif" font-size="10.00">nový stav</text>
</g>
<!-- goto&#45;&gt;on_enter -->
<g id="edge10" class="edge">
<title>goto&#45;&gt;on_enter</title>
<path fill="none" stroke="#4a9fd4" stroke-width="1.2" d="M105.23,-378.97C105.23,-378.97 105.23,-344.9 105.23,-344.9"/>
<polygon fill="#4a9fd4" stroke="#4a9fd4" stroke-width="1.2" points="105.23,-336.9 108.83,-344.9 105.33,-339.44 105.33,-344.9 105.23,-344.9 105.13,-344.9 105.13,-339.44 101.63,-344.9 105.23,-336.9"/>
</g>
<!-- exec_action -->
<g id="node11" class="node">
<title>exec_action</title>
<path fill="#c8f5e8" stroke="#3aaf80" stroke-width="1.8" d="M139.86,-235.25C139.86,-235.25 70.61,-235.25 70.61,-235.25 64.61,-235.25 58.61,-229.25 58.61,-223.25 58.61,-223.25 58.61,-211.25 58.61,-211.25 58.61,-205.25 64.61,-199.25 70.61,-199.25 70.61,-199.25 139.86,-199.25 139.86,-199.25 145.86,-199.25 151.86,-205.25 151.86,-211.25 151.86,-211.25 151.86,-223.25 151.86,-223.25 151.86,-229.25 145.86,-235.25 139.86,-235.25"/>
<text xml:space="preserve" text-anchor="middle" x="105.23" y="-219.75" font-family="Helvetica,sans-Serif" font-size="10.00">_execute_action()</text>
<text xml:space="preserve" text-anchor="middle" x="105.23" y="-207.75" font-family="Helvetica,sans-Serif" font-size="10.00">type=mqtt</text>
</g>
<!-- on_enter&#45;&gt;exec_action -->
<g id="edge11" class="edge">
<title>on_enter&#45;&gt;exec_action</title>
<path fill="none" stroke="#4a9fd4" stroke-width="1.2" d="M105.23,-298.04C105.23,-298.04 105.23,-245.35 105.23,-245.35"/>
<polygon fill="#4a9fd4" stroke="#4a9fd4" stroke-width="1.2" points="105.23,-237.35 108.83,-245.35 105.33,-239.89 105.33,-245.35 105.23,-245.35 105.13,-245.35 105.13,-239.89 101.63,-245.35 105.23,-237.35"/>
<text xml:space="preserve" text-anchor="middle" x="125.48" y="-269.15" font-family="Helvetica,sans-Serif" font-size="8.00"> &#160;každá</text>
<text xml:space="preserve" text-anchor="middle" x="125.48" y="-259.4" font-family="Helvetica,sans-Serif" font-size="8.00"> &#160;mqtt akcia</text>
</g>
<!-- publish -->
<g id="node12" class="node">
<title>publish</title>
<polygon fill="#ffe8d8" stroke="#e07a50" stroke-width="1.8" points="210.46,-154.25 43.06,-154.25 0,-90.25 167.4,-90.25 210.46,-154.25"/>
<text xml:space="preserve" text-anchor="middle" x="105.23" y="-124.75" font-family="Helvetica,sans-Serif" font-size="10.00">MQTTClient</text>
<text xml:space="preserve" text-anchor="middle" x="105.23" y="-112.75" font-family="Helvetica,sans-Serif" font-size="10.00">.publish(topic, msg)</text>
</g>
<!-- exec_action&#45;&gt;publish -->
<g id="edge12" class="edge">
<title>exec_action&#45;&gt;publish</title>
<path fill="none" stroke="#4a9fd4" stroke-width="1.2" d="M105.23,-198.49C105.23,-198.49 105.23,-164.3 105.23,-164.3"/>
<polygon fill="#4a9fd4" stroke="#4a9fd4" stroke-width="1.2" points="105.23,-156.3 108.83,-164.3 105.33,-158.84 105.33,-164.3 105.23,-164.3 105.13,-164.3 105.13,-158.84 101.63,-164.3 105.23,-156.3"/>
</g>
<!-- continue -->
<g id="node13" class="node">
<title>continue</title>
<ellipse fill="#eae4ff" stroke="#8b6fcc" stroke-width="2.2" cx="105.23" cy="-22.63" rx="44.19" ry="22.63"/>
<text xml:space="preserve" text-anchor="middle" x="105.23" y="-25.13" font-family="Helvetica,sans-Serif" font-size="10.00">return True</text>
<text xml:space="preserve" text-anchor="middle" x="105.23" y="-13.13" font-family="Helvetica,sans-Serif" font-size="10.00">(pokračuj)</text>
</g>
<!-- publish&#45;&gt;continue -->
<g id="edge13" class="edge">
<title>publish&#45;&gt;continue</title>
<path fill="none" stroke="#4a9fd4" stroke-width="1.2" d="M105.23,-89.36C105.23,-89.36 105.23,-55.81 105.23,-55.81"/>
<polygon fill="#4a9fd4" stroke="#4a9fd4" stroke-width="1.2" points="105.23,-47.81 108.83,-55.81 105.33,-50.34 105.33,-55.81 105.23,-55.81 105.13,-55.81 105.13,-50.34 101.63,-55.81 105.23,-47.81"/>
</g>
</g>
</svg>
