<?xml version="1.0" encoding="UTF-8" standalone="no"?>
<!DOCTYPE svg PUBLIC "-//W3C//DTD SVG 1.1//EN"
 "http://www.w3.org/Graphics/SVG/1.1/DTD/svg11.dtd">
<!-- Generated by graphviz version 14.1.3 (20260303.0454)
 -->
<!-- Title: linearny_pristup Pages: 1 -->
<svg width="515pt" height="1500pt"
 viewBox="0.00 0.00 515.00 1500.00" xmlns="http://www.w3.org/2000/svg" xmlns:xlink="http://www.w3.org/1999/xlink">
<g id="graph0" class="graph" transform="scale(2.84522 2.84522) rotate(0) translate(21.6 505.6)">
<title>linearny_pristup</title>
<polygon fill="#f8f8fc" stroke="none" points="-21.6,21.6 -21.6,-505.6 159.26,-505.6 159.26,21.6 -21.6,21.6"/>
<!-- start -->
<g id="node1" class="node">
<title>start</title>
<ellipse fill="#eae4ff" stroke="#8b6fcc" stroke-width="2.2" cx="74.66" cy="-466" rx="27" ry="18"/>
<text xml:space="preserve" text-anchor="middle" x="74.66" y="-462.5" font-family="Helvetica,sans-Serif" font-size="10.00">Štart</text>
</g>
<!-- a1 -->
<g id="node2" class="node">
<title>a1</title>
<path fill="#c8f5e8" stroke="#3aaf80" stroke-width="1.8" d="M89.66,-412C89.66,-412 59.66,-412 59.66,-412 53.66,-412 47.66,-406 47.66,-400 47.66,-400 47.66,-388 47.66,-388 47.66,-382 53.66,-376 59.66,-376 59.66,-376 89.66,-376 89.66,-376 95.66,-376 101.66,-382 101.66,-388 101.66,-388 101.66,-400 101.66,-400 101.66,-406 95.66,-412 89.66,-412"/>
<text xml:space="preserve" text-anchor="middle" x="74.66" y="-390.5" font-family="Helvetica,sans-Serif" font-size="10.00">Akcia</text>
</g>
<!-- start&#45;&gt;a1 -->
<g id="edge1" class="edge">
<title>start&#45;&gt;a1</title>
<path fill="none" stroke="#4a9fd4" stroke-width="1.2" d="M74.66,-447.08C74.66,-447.08 74.66,-422.25 74.66,-422.25"/>
<polygon fill="#4a9fd4" stroke="#4a9fd4" stroke-width="1.2" points="74.66,-414.25 78.26,-422.25 74.76,-416.79 74.76,-422.25 74.66,-422.25 74.56,-422.25 74.56,-416.79 71.06,-422.25 74.66,-414.25"/>
</g>
<!-- w1 -->
<g id="node3" class="node">
<title>w1</title>
<polygon fill="#d0eeff" stroke="#4a9fd4" stroke-width="1.8" points="101.66,-336 47.66,-336 47.66,-300 101.66,-300 101.66,-336"/>
<polygon fill="none" stroke="#4a9fd4" stroke-width="1.8" points="105.66,-340 43.66,-340 43.66,-296 105.66,-296 105.66,-340"/>
<text xml:space="preserve" text-anchor="middle" x="74.66" y="-314.5" font-family="Helvetica,sans-Serif" font-size="10.00">Čakaj</text>
</g>
<!-- a1&#45;&gt;w1 -->
<g id="edge2" class="edge">
<title>a1&#45;&gt;w1</title>
<path fill="none" stroke="#4a9fd4" stroke-width="1.2" d="M74.66,-375.21C74.66,-375.21 74.66,-350.09 74.66,-350.09"/>
<polygon fill="#4a9fd4" stroke="#4a9fd4" stroke-width="1.2" points="74.66,-342.09 78.26,-350.09 74.76,-344.63 74.76,-350.09 74.66,-350.09 74.56,-350.09 74.56,-344.63 71.06,-350.09 74.66,-342.09"/>
</g>
<!-- a2 -->
<g id="node4" class="node">
<title>a2</title>
<path fill="#c8f5e8" stroke="#3aaf80" stroke-width="1.8" d="M52.66,-260C52.66,-260 22.66,-260 22.66,-260 16.66,-260 10.66,-254 10.66,-248 10.66,-248 10.66,-236 10.66,-236 10.66,-230 16.66,-224 22.66,-224 22.66,-224 52.66,-224 52.66,-224 58.66,-224 64.66,-230 64.66,-236 64.66,-236 64.66,-248 64.66,-248 64.66,-254 58.66,-260 52.66,-260"/>
<text xml:space="preserve" text-anchor="middle" x="37.66" y="-238.5" font-family="Helvetica,sans-Serif" font-size="10.00">Akcia</text>
</g>
<!-- w1&#45;&gt;a2 -->
<g id="edge3" class="edge">
<title>w1&#45;&gt;a2</title>
<path fill="none" stroke="#4a9fd4" stroke-width="1.2" d="M54.16,-295.2C54.16,-295.2 54.16,-270.16 54.16,-270.16"/>
<polygon fill="#4a9fd4" stroke="#4a9fd4" stroke-width="1.2" points="54.16,-262.16 57.76,-270.16 54.26,-264.7 54.26,-270.16 54.16,-270.16 54.06,-270.16 54.06,-264.7 50.56,-270.16 54.16,-262.16"/>
</g>
<!-- note -->
<g id="node8" class="node">
<title>note</title>
<polygon fill="#fffde8" stroke="#e0c840" stroke-width="1.2" points="131.66,-108 83.66,-108 83.66,-72 137.66,-72 137.66,-102 131.66,-108"/>
<polyline fill="none" stroke="#e0c840" stroke-width="1.2" points="131.66,-108 131.66,-102"/>
<polyline fill="none" stroke="#e0c840" stroke-width="1.2" points="137.66,-102 131.66,-102"/>
<text xml:space="preserve" text-anchor="middle" x="110.66" y="-87.28" font-family="Helvetica,sans-Serif" font-size="8.00">blokované</text>
</g>
<!-- w1&#45;&gt;note -->
<g id="edge7" class="edge">
<title>w1&#45;&gt;note</title>
<path fill="none" stroke="#7a7a9a" stroke-width="1.2" stroke-dasharray="5,2" d="M94.66,-295.3C94.66,-295.3 94.66,-117.86 94.66,-117.86"/>
<polygon fill="#7a7a9a" stroke="#7a7a9a" stroke-width="1.2" points="94.66,-109.86 98.26,-117.86 94.76,-112.4 94.76,-117.86 94.66,-117.86 94.56,-117.86 94.56,-112.4 91.06,-117.86 94.66,-109.86"/>
</g>
<!-- w2 -->
<g id="node5" class="node">
<title>w2</title>
<polygon fill="#d0eeff" stroke="#4a9fd4" stroke-width="1.8" points="62.66,-184 8.66,-184 8.66,-148 62.66,-148 62.66,-184"/>
<polygon fill="none" stroke="#4a9fd4" stroke-width="1.8" points="66.66,-188 4.66,-188 4.66,-144 66.66,-144 66.66,-188"/>
<text xml:space="preserve" text-anchor="middle" x="35.66" y="-162.5" font-family="Helvetica,sans-Serif" font-size="10.00">Čakaj</text>
</g>
<!-- a2&#45;&gt;w2 -->
<g id="edge4" class="edge">
<title>a2&#45;&gt;w2</title>
<path fill="none" stroke="#4a9fd4" stroke-width="1.2" d="M37.66,-223.21C37.66,-223.21 37.66,-198.09 37.66,-198.09"/>
<polygon fill="#4a9fd4" stroke="#4a9fd4" stroke-width="1.2" points="37.66,-190.09 41.26,-198.09 37.76,-192.63 37.76,-198.09 37.66,-198.09 37.56,-198.09 37.56,-192.63 34.06,-198.09 37.66,-190.09"/>
</g>
<!-- a3 -->
<g id="node6" class="node">
<title>a3</title>
<path fill="#c8f5e8" stroke="#3aaf80" stroke-width="1.8" d="M42.66,-108C42.66,-108 12.66,-108 12.66,-108 6.66,-108 0.66,-102 0.66,-96 0.66,-96 0.66,-84 0.66,-84 0.66,-78 6.66,-72 12.66,-72 12.66,-72 42.66,-72 42.66,-72 48.66,-72 54.66,-78 54.66,-84 54.66,-84 54.66,-96 54.66,-96 54.66,-102 48.66,-108 42.66,-108"/>
<text xml:space="preserve" text-anchor="middle" x="27.66" y="-86.5" font-family="Helvetica,sans-Serif" font-size="10.00">Akcia</text>
</g>
<!-- w2&#45;&gt;a3 -->
<g id="edge5" class="edge">
<title>w2&#45;&gt;a3</title>
<path fill="none" stroke="#4a9fd4" stroke-width="1.2" d="M29.66,-143.2C29.66,-143.2 29.66,-118.16 29.66,-118.16"/>
<polygon fill="#4a9fd4" stroke="#4a9fd4" stroke-width="1.2" points="29.66,-110.16 33.26,-118.16 29.76,-112.7 29.76,-118.16 29.66,-118.16 29.56,-118.16 29.56,-112.7 26.06,-118.16 29.66,-110.16"/>
</g>
<!-- w2&#45;&gt;note -->
<g id="edge8" class="edge">
<title>w2&#45;&gt;note</title>
<path fill="none" stroke="#7a7a9a" stroke-width="1.2" stroke-dasharray="5,2" d="M60.99,-143.2C60.99,-120.81 60.99,-90 60.99,-90 60.99,-90 73.75,-90 73.75,-90"/>
<polygon fill="#7a7a9a" stroke="#7a7a9a" stroke-width="1.2" points="81.75,-90 73.75,-93.6 79.21,-90.1 73.75,-90.1 73.75,-90 73.75,-89.9 79.21,-89.9 73.75,-86.4 81.75,-90"/>
</g>
<!-- end -->
<g id="node7" class="node">
<title>end</title>
<ellipse fill="#eae4ff" stroke="#8b6fcc" stroke-width="2.2" cx="27.66" cy="-18" rx="27.66" ry="18"/>
<text xml:space="preserve" text-anchor="middle" x="27.66" y="-14.5" font-family="Helvetica,sans-Serif" font-size="10.00">Koniec</text>
</g>
<!-- a3&#45;&gt;end -->
<g id="edge6" class="edge">
<title>a3&#45;&gt;end</title>
<path fill="none" stroke="#4a9fd4" stroke-width="1.2" d="M27.66,-71.46C27.66,-71.46 27.66,-46.44 27.66,-46.44"/>
<polygon fill="#4a9fd4" stroke="#4a9fd4" stroke-width="1.2" points="27.66,-38.44 31.26,-46.44 27.76,-40.98 27.76,-46.44 27.66,-46.44 27.56,-46.44 27.56,-40.98 24.06,-46.44 27.66,-38.44"/>
</g>
</g>
</svg>
