<?xml version="1.0" encoding="UTF-8" standalone="no"?>
<!DOCTYPE svg PUBLIC "-//W3C//DTD SVG 1.1//EN"
 "http://www.w3.org/Graphics/SVG/1.1/DTD/svg11.dtd">
<!-- Generated by graphviz version 14.1.3 (20260303.0454)
 -->
<!-- Title: scene_schema Pages: 1 -->
<svg width="1435pt" height="1819pt"
 viewBox="0.00 0.00 1435.00 1819.00" xmlns="http://www.w3.org/2000/svg" xmlns:xlink="http://www.w3.org/1999/xlink">
<g id="graph0" class="graph" transform="scale(4.16667 4.16667) rotate(0) translate(36 400.5)">
<title>scene_schema</title>
<polygon fill="white" stroke="none" points="-36,36 -36,-400.5 308.5,-400.5 308.5,36 -36,36"/>
<!-- scene -->
<g id="node1" class="node">
<title>scene</title>
<path fill="#e8eef4" stroke="none" d="M13,-1C13,-1 259.5,-1 259.5,-1 265.5,-1 271.5,-7 271.5,-13 271.5,-13 271.5,-351.5 271.5,-351.5 271.5,-357.5 265.5,-363.5 259.5,-363.5 259.5,-363.5 13,-363.5 13,-363.5 7,-363.5 1,-357.5 1,-351.5 1,-351.5 1,-13 1,-13 1,-7 7,-1 13,-1"/>
<polygon fill="#6b8fa8" stroke="none" points="8,-322.75 8,-356.5 264.5,-356.5 264.5,-322.75 8,-322.75"/>
<text xml:space="preserve" text-anchor="start" x="17" y="-335.2" font-family="Helvetica,sans-Serif" font-weight="bold" font-size="13.00" fill="#1a2e3d">Scene</text>
<text xml:space="preserve" text-anchor="start" x="56.75" y="-335.2" font-family="Helvetica,sans-Serif" font-size="14.00">  </text>
<text xml:space="preserve" text-anchor="start" x="64.25" y="-335.2" font-family="Helvetica,sans-Serif" font-style="italic" font-size="8.00" fill="#6b8ba4">.json</text>
<polygon fill="#7a9bb5" stroke="none" points="8,-315.75 8,-316.75 264.5,-316.75 264.5,-315.75 8,-315.75"/>
<text xml:space="preserve" text-anchor="start" x="17" y="-294.15" font-family="Helvetica,sans-Serif" font-weight="bold" font-size="8.00" fill="#1a2e3d">sceneId</text>
<text xml:space="preserve" text-anchor="start" x="149.5" y="-294.35" font-family="Helvetica,sans-Serif" font-style="italic" font-size="7.00" fill="#6b8ba4">string</text>
<text xml:space="preserve" text-anchor="start" x="17" y="-278.4" font-family="Helvetica,sans-Serif" font-weight="bold" font-size="8.00" fill="#1a2e3d">version</text>
<text xml:space="preserve" text-anchor="start" x="149.5" y="-278.6" font-family="Helvetica,sans-Serif" font-style="italic" font-size="7.00" fill="#6b8ba4">string</text>
<text xml:space="preserve" text-anchor="start" x="17" y="-262.65" font-family="Helvetica,sans-Serif" font-weight="bold" font-size="8.00" fill="#1a2e3d">description</text>
<text xml:space="preserve" text-anchor="start" x="149.5" y="-262.85" font-family="Helvetica,sans-Serif" font-style="italic" font-size="7.00" fill="#6b8ba4">string</text>
<text xml:space="preserve" text-anchor="start" x="17" y="-243.9" font-family="Helvetica,sans-Serif" font-weight="bold" font-size="8.00" fill="#1a2e3d">initialState</text>
<text xml:space="preserve" text-anchor="start" x="149.5" y="-241.2" font-family="Helvetica,sans-Serif" font-style="italic" font-size="7.00" fill="#6b8ba4">string</text>
<text xml:space="preserve" text-anchor="start" x="166.75" y="-241.2" font-family="Helvetica,sans-Serif" font-size="14.00">  </text>
<text xml:space="preserve" text-anchor="start" x="174.25" y="-241.2" font-family="Helvetica,sans-Serif" font-style="italic" font-size="7.00" fill="#6b8ba4">→ name of the first state</text>
<polygon fill="#b0c8da" stroke="none" points="8,-221.75 8,-222.75 264.5,-222.75 264.5,-221.75 8,-221.75"/>
<polygon fill="#f2f6fa" stroke="none" points="8,-132.5 8,-215.75 264.5,-215.75 264.5,-132.5 8,-132.5"/>
<polygon fill="none" stroke="#7a9bb5" points="8,-132.5 8,-215.75 264.5,-215.75 264.5,-132.5 8,-132.5"/>
<polygon fill="#f2f6fa" stroke="none" points="9,-133.5 9,-214.75 263.5,-214.75 263.5,-133.5 9,-133.5"/>
<polygon fill="#6b8fa8" stroke="none" points="9,-194.25 9,-214.75 263.5,-214.75 263.5,-194.25 9,-194.25"/>
<text xml:space="preserve" text-anchor="start" x="14" y="-202.2" font-family="Helvetica,sans-Serif" font-weight="bold" font-size="9.00" fill="#1a2e3d">globalEvents &#160;[ ]</text>
<polygon fill="#b0c8da" stroke="none" points="9,-193.25 9,-194.25 263.5,-194.25 263.5,-193.25 9,-193.25"/>
<text xml:space="preserve" text-anchor="start" x="13" y="-183.6" font-family="Helvetica,sans-Serif" font-style="italic" font-size="7.00" fill="#6b8ba4">Transition[] &#160;— &#160;active in every state</text>
<text xml:space="preserve" text-anchor="start" x="12" y="-164.4" font-family="Helvetica,sans-Serif" font-weight="bold" font-size="8.00" fill="#1a2e3d">type</text>
<text xml:space="preserve" text-anchor="start" x="142" y="-161.7" font-family="Helvetica,sans-Serif" font-style="italic" font-size="7.00" fill="#6b8ba4">string</text>
<text xml:space="preserve" text-anchor="start" x="159.25" y="-161.7" font-family="Helvetica,sans-Serif" font-size="14.00">  </text>
<text xml:space="preserve" text-anchor="start" x="166.75" y="-161.7" font-family="Helvetica,sans-Serif" font-style="italic" font-size="7.00" fill="#6b8ba4">timeout &#160;| &#160;mqttMessage &#160;| &#160;…</text>
<text xml:space="preserve" text-anchor="start" x="12" y="-142.65" font-family="Helvetica,sans-Serif" font-weight="bold" font-size="8.00" fill="#1a2e3d">goto</text>
<text xml:space="preserve" text-anchor="start" x="142" y="-139.95" font-family="Helvetica,sans-Serif" font-style="italic" font-size="7.00" fill="#6b8ba4">string</text>
<text xml:space="preserve" text-anchor="start" x="159.25" y="-139.95" font-family="Helvetica,sans-Serif" font-size="14.00">  </text>
<text xml:space="preserve" text-anchor="start" x="166.75" y="-139.95" font-family="Helvetica,sans-Serif" font-style="italic" font-size="7.00" fill="#6b8ba4">state name &#160;or &#160;END</text>
<polygon fill="#f2f6fa" stroke="none" points="8,-8 8,-126.5 264.5,-126.5 264.5,-8 8,-8"/>
<polygon fill="none" stroke="#7a9bb5" points="8,-8 8,-126.5 264.5,-126.5 264.5,-8 8,-8"/>
<polygon fill="#f2f6fa" stroke="none" points="9,-9 9,-125.5 263.5,-125.5 263.5,-9 9,-9"/>
<polygon fill="#6b8fa8" stroke="none" points="9,-105 9,-125.5 263.5,-125.5 263.5,-105 9,-105"/>
<text xml:space="preserve" text-anchor="start" x="14" y="-112.95" font-family="Helvetica,sans-Serif" font-weight="bold" font-size="9.00" fill="#1a2e3d">states &#160;{ }</text>
<polygon fill="#b0c8da" stroke="none" points="9,-104 9,-105 263.5,-105 263.5,-104 9,-104"/>
<text xml:space="preserve" text-anchor="start" x="13" y="-94.35" font-family="Helvetica,sans-Serif" font-style="italic" font-size="7.00" fill="#6b8ba4">One entry per state, keyed by state name.</text>
<text xml:space="preserve" text-anchor="start" x="12" y="-78.15" font-family="Helvetica,sans-Serif" font-weight="bold" font-size="8.00" fill="#1a2e3d">description</text>
<text xml:space="preserve" text-anchor="start" x="189.25" y="-78.35" font-family="Helvetica,sans-Serif" font-style="italic" font-size="7.00" fill="#6b8ba4">string</text>
<text xml:space="preserve" text-anchor="start" x="12" y="-62.4" font-family="Helvetica,sans-Serif" font-weight="bold" font-size="8.00" fill="#1a2e3d">onEnter</text>
<text xml:space="preserve" text-anchor="start" x="189.25" y="-62.6" font-family="Helvetica,sans-Serif" font-style="italic" font-size="7.00" fill="#6b8ba4">Action[]</text>
<text xml:space="preserve" text-anchor="start" x="12" y="-46.65" font-family="Helvetica,sans-Serif" font-weight="bold" font-size="8.00" fill="#1a2e3d">onExit</text>
<text xml:space="preserve" text-anchor="start" x="189.25" y="-46.85" font-family="Helvetica,sans-Serif" font-style="italic" font-size="7.00" fill="#6b8ba4">Action[]</text>
<text xml:space="preserve" text-anchor="start" x="12" y="-30.9" font-family="Helvetica,sans-Serif" font-weight="bold" font-size="8.00" fill="#1a2e3d">timeline</text>
<text xml:space="preserve" text-anchor="start" x="189.25" y="-31.1" font-family="Helvetica,sans-Serif" font-style="italic" font-size="7.00" fill="#6b8ba4">array</text>
<text xml:space="preserve" text-anchor="start" x="12" y="-15.15" font-family="Helvetica,sans-Serif" font-weight="bold" font-size="8.00" fill="#1a2e3d">transitions</text>
<text xml:space="preserve" text-anchor="start" x="189.25" y="-15.35" font-family="Helvetica,sans-Serif" font-style="italic" font-size="7.00" fill="#6b8ba4">array</text>
<path fill="none" stroke="#7a9bb5" stroke-width="2" d="M13,-1C13,-1 259.5,-1 259.5,-1 265.5,-1 271.5,-7 271.5,-13 271.5,-13 271.5,-351.5 271.5,-351.5 271.5,-357.5 265.5,-363.5 259.5,-363.5 259.5,-363.5 13,-363.5 13,-363.5 7,-363.5 1,-357.5 1,-351.5 1,-351.5 1,-13 1,-13 1,-7 7,-1 13,-1"/>
</g>
</g>
</svg>
