<?xml version="1.0" encoding="UTF-8" standalone="no"?>
<!DOCTYPE svg PUBLIC "-//W3C//DTD SVG 1.1//EN"
 "http://www.w3.org/Graphics/SVG/1.1/DTD/svg11.dtd">
<!-- Generated by graphviz version 14.1.3 (20260303.0454)
 -->
<!-- Title: scene_json Pages: 1 -->
<svg width="1385pt" height="1735pt"
 viewBox="0.00 0.00 1385.00 1735.00" xmlns="http://www.w3.org/2000/svg" xmlns:xlink="http://www.w3.org/1999/xlink">
<g id="graph0" class="graph" transform="scale(4.16667 4.16667) rotate(0) translate(36 380.5)">
<title>scene_json</title>
<polygon fill="#f8f8fc" stroke="none" points="-36,36 -36,-380.5 296.5,-380.5 296.5,36 -36,36"/>
<!-- scene -->
<g id="node1" class="node">
<title>scene</title>
<path fill="#edfaf3" stroke="none" d="M13,-1C13,-1 247.5,-1 247.5,-1 253.5,-1 259.5,-7 259.5,-13 259.5,-13 259.5,-331.5 259.5,-331.5 259.5,-337.5 253.5,-343.5 247.5,-343.5 247.5,-343.5 13,-343.5 13,-343.5 7,-343.5 1,-337.5 1,-331.5 1,-331.5 1,-13 1,-13 1,-7 7,-1 13,-1"/>
<polygon fill="#3aaf80" stroke="none" points="2,-306.75 2,-342.5 258.5,-342.5 258.5,-306.75 2,-306.75"/>
<text xml:space="preserve" text-anchor="start" x="12" y="-320.2" font-family="Helvetica,sans-Serif" font-weight="bold" font-size="13.00" fill="#ffffff">Scene</text>
<text xml:space="preserve" text-anchor="start" x="51.75" y="-320.2" font-family="Helvetica,sans-Serif" font-size="14.00">  </text>
<text xml:space="preserve" text-anchor="start" x="59.25" y="-320.2" font-family="Helvetica,sans-Serif" font-style="italic" font-size="8.00" fill="#c0f0d8">.json</text>
<polygon fill="#7dd4b0" stroke="none" points="2,-305.75 2,-306.75 258.5,-306.75 258.5,-305.75 2,-305.75"/>
<polygon fill="#edfaf3" stroke="none" points="2,-220.75 2,-305.75 258.5,-305.75 258.5,-220.75 2,-220.75"/>
<text xml:space="preserve" text-anchor="start" x="13" y="-288.15" font-family="Helvetica,sans-Serif" font-weight="bold" font-size="8.00" fill="#1a1a2e">sceneId</text>
<text xml:space="preserve" text-anchor="start" x="143.5" y="-288.35" font-family="Helvetica,sans-Serif" font-style="italic" font-size="7.00" fill="#4a8a6a">string</text>
<text xml:space="preserve" text-anchor="start" x="13" y="-272.4" font-family="Helvetica,sans-Serif" font-weight="bold" font-size="8.00" fill="#1a1a2e">version</text>
<text xml:space="preserve" text-anchor="start" x="143.5" y="-272.6" font-family="Helvetica,sans-Serif" font-style="italic" font-size="7.00" fill="#4a8a6a">string</text>
<text xml:space="preserve" text-anchor="start" x="13" y="-256.65" font-family="Helvetica,sans-Serif" font-weight="bold" font-size="8.00" fill="#1a1a2e">description</text>
<text xml:space="preserve" text-anchor="start" x="143.5" y="-256.85" font-family="Helvetica,sans-Serif" font-style="italic" font-size="7.00" fill="#4a8a6a">string</text>
<text xml:space="preserve" text-anchor="start" x="13" y="-237.9" font-family="Helvetica,sans-Serif" font-weight="bold" font-size="8.00" fill="#1a1a2e">initialState</text>
<text xml:space="preserve" text-anchor="start" x="143.5" y="-235.2" font-family="Helvetica,sans-Serif" font-style="italic" font-size="7.00" fill="#4a8a6a">string</text>
<text xml:space="preserve" text-anchor="start" x="160.75" y="-235.2" font-family="Helvetica,sans-Serif" font-size="14.00">  </text>
<text xml:space="preserve" text-anchor="start" x="168.25" y="-235.2" font-family="Helvetica,sans-Serif" font-style="italic" font-size="7.00" fill="#4a8a6a">→ name of the first state</text>
<polygon fill="#a8e8cc" stroke="none" points="2,-219.75 2,-220.75 258.5,-220.75 258.5,-219.75 2,-219.75"/>
<polygon fill="#d8f5ec" stroke="none" points="2,-128.5 2,-219.75 258.5,-219.75 258.5,-128.5 2,-128.5"/>
<polygon fill="none" stroke="#7dd4b0" points="2,-128.5 2,-219.75 258.5,-219.75 258.5,-128.5 2,-128.5"/>
<polygon fill="#d8f5ec" stroke="none" points="3,-129.5 3,-218.75 257.5,-218.75 257.5,-129.5 3,-129.5"/>
<polygon fill="#2e9a78" stroke="none" points="3,-196.25 3,-218.75 257.5,-218.75 257.5,-196.25 3,-196.25"/>
<text xml:space="preserve" text-anchor="start" x="9" y="-205.2" font-family="Helvetica,sans-Serif" font-weight="bold" font-size="9.00" fill="#ffffff">globalEvents &#160;[ ]</text>
<polygon fill="#7dd4b0" stroke="none" points="3,-195.25 3,-196.25 257.5,-196.25 257.5,-195.25 3,-195.25"/>
<text xml:space="preserve" text-anchor="start" x="7" y="-185.6" font-family="Helvetica,sans-Serif" font-style="italic" font-size="7.00" fill="#4a8a6a">Transition[] &#160;— &#160;active in every state</text>
<text xml:space="preserve" text-anchor="start" x="6" y="-166.4" font-family="Helvetica,sans-Serif" font-weight="bold" font-size="8.00" fill="#1a1a2e">type</text>
<text xml:space="preserve" text-anchor="start" x="136" y="-163.7" font-family="Helvetica,sans-Serif" font-style="italic" font-size="7.00" fill="#4a8a6a">string</text>
<text xml:space="preserve" text-anchor="start" x="153.25" y="-163.7" font-family="Helvetica,sans-Serif" font-size="14.00">  </text>
<text xml:space="preserve" text-anchor="start" x="160.75" y="-163.7" font-family="Helvetica,sans-Serif" font-style="italic" font-size="7.00" fill="#4a8a6a">timeout &#160;| &#160;mqttMessage &#160;| &#160;…</text>
<text xml:space="preserve" text-anchor="start" x="6" y="-144.65" font-family="Helvetica,sans-Serif" font-weight="bold" font-size="8.00" fill="#1a1a2e">goto</text>
<text xml:space="preserve" text-anchor="start" x="136" y="-141.95" font-family="Helvetica,sans-Serif" font-style="italic" font-size="7.00" fill="#4a8a6a">string</text>
<text xml:space="preserve" text-anchor="start" x="153.25" y="-141.95" font-family="Helvetica,sans-Serif" font-size="14.00">  </text>
<text xml:space="preserve" text-anchor="start" x="160.75" y="-141.95" font-family="Helvetica,sans-Serif" font-style="italic" font-size="7.00" fill="#4a8a6a">state name &#160;or &#160;END</text>
<polygon fill="#e0f2ff" stroke="none" points="2,-2 2,-128.5 258.5,-128.5 258.5,-2 2,-2"/>
<polygon fill="none" stroke="#7bbce8" points="2,-2 2,-128.5 258.5,-128.5 258.5,-2 2,-2"/>
<polygon fill="#e0f2ff" stroke="none" points="3,-3 3,-127.5 257.5,-127.5 257.5,-3 3,-3"/>
<polygon fill="#4a9fd4" stroke="none" points="3,-105 3,-127.5 257.5,-127.5 257.5,-105 3,-105"/>
<text xml:space="preserve" text-anchor="start" x="9" y="-113.95" font-family="Helvetica,sans-Serif" font-weight="bold" font-size="9.00" fill="#ffffff">states &#160;{ }</text>
<polygon fill="#7bbce8" stroke="none" points="3,-104 3,-105 257.5,-105 257.5,-104 3,-104"/>
<text xml:space="preserve" text-anchor="start" x="7" y="-94.35" font-family="Helvetica,sans-Serif" font-style="italic" font-size="7.00" fill="#4a8a6a">One entry per state, keyed by state name.</text>
<text xml:space="preserve" text-anchor="start" x="6" y="-78.15" font-family="Helvetica,sans-Serif" font-weight="bold" font-size="8.00" fill="#1a1a2e">description</text>
<text xml:space="preserve" text-anchor="start" x="183.25" y="-78.35" font-family="Helvetica,sans-Serif" font-style="italic" font-size="7.00" fill="#4a8a6a">string</text>
<text xml:space="preserve" text-anchor="start" x="6" y="-62.4" font-family="Helvetica,sans-Serif" font-weight="bold" font-size="8.00" fill="#1a1a2e">onEnter</text>
<text xml:space="preserve" text-anchor="start" x="183.25" y="-62.6" font-family="Helvetica,sans-Serif" font-style="italic" font-size="7.00" fill="#4a8a6a">Action[]</text>
<text xml:space="preserve" text-anchor="start" x="6" y="-46.65" font-family="Helvetica,sans-Serif" font-weight="bold" font-size="8.00" fill="#1a1a2e">onExit</text>
<text xml:space="preserve" text-anchor="start" x="183.25" y="-46.85" font-family="Helvetica,sans-Serif" font-style="italic" font-size="7.00" fill="#4a8a6a">Action[]</text>
<text xml:space="preserve" text-anchor="start" x="6" y="-30.9" font-family="Helvetica,sans-Serif" font-weight="bold" font-size="8.00" fill="#1a1a2e">timeline</text>
<text xml:space="preserve" text-anchor="start" x="183.25" y="-31.1" font-family="Helvetica,sans-Serif" font-style="italic" font-size="7.00" fill="#4a8a6a">array</text>
<text xml:space="preserve" text-anchor="start" x="6" y="-15.15" font-family="Helvetica,sans-Serif" font-weight="bold" font-size="8.00" fill="#1a1a2e">transitions</text>
<text xml:space="preserve" text-anchor="start" x="183.25" y="-15.35" font-family="Helvetica,sans-Serif" font-style="italic" font-size="7.00" fill="#4a8a6a">array</text>
<path fill="none" stroke="#7dd4b0" stroke-width="2" d="M13,-1C13,-1 247.5,-1 247.5,-1 253.5,-1 259.5,-7 259.5,-13 259.5,-13 259.5,-331.5 259.5,-331.5 259.5,-337.5 253.5,-343.5 247.5,-343.5 247.5,-343.5 13,-343.5 13,-343.5 7,-343.5 1,-337.5 1,-331.5 1,-331.5 1,-13 1,-13 1,-7 7,-1 13,-1"/>
</g>
</g>
</svg>
