<?xml version="1.0" encoding="UTF-8" standalone="no"?>
<!DOCTYPE svg PUBLIC "-//W3C//DTD SVG 1.1//EN"
 "http://www.w3.org/Graphics/SVG/1.1/DTD/svg11.dtd">
<!-- Generated by graphviz version 14.1.3 (20260303.0454)
 -->
<!-- Title: system_topology Pages: 1 -->
<svg width="540pt" height="323pt"
 viewBox="0.00 0.00 540.00 323.00" xmlns="http://www.w3.org/2000/svg" xmlns:xlink="http://www.w3.org/1999/xlink">
<g id="graph0" class="graph" transform="scale(0.841121 0.841121) rotate(0) translate(36 348.25)">
<title>system_topology</title>
<polygon fill="#f8f8fc" stroke="none" points="-36,36 -36,-348.25 606,-348.25 606,36 -36,36"/>
<g id="clust1" class="cluster">
<title>cluster_rpi</title>
<path fill="#c8f5e8" stroke="#3aaf80" stroke-width="2.5" d="M213.5,-97.75C213.5,-97.75 505.5,-97.75 505.5,-97.75 511.5,-97.75 517.5,-103.75 517.5,-109.75 517.5,-109.75 517.5,-292.25 517.5,-292.25 517.5,-298.25 511.5,-304.25 505.5,-304.25 505.5,-304.25 213.5,-304.25 213.5,-304.25 207.5,-304.25 201.5,-298.25 201.5,-292.25 201.5,-292.25 201.5,-109.75 201.5,-109.75 201.5,-103.75 207.5,-97.75 213.5,-97.75"/>
<text xml:space="preserve" text-anchor="middle" x="359.5" y="-289.8" font-family="Helvetica,sans-Serif" font-size="11.00" fill="#0e3325">Raspberry Pi</text>
</g>
<!-- rpi -->
<g id="node1" class="node">
<title>rpi</title>
<polygon fill="#c8f5e8" stroke="#3aaf80" stroke-width="2.5" points="407,-262.75 310,-262.75 310,-226.75 407,-226.75 407,-262.75"/>
<text xml:space="preserve" text-anchor="middle" x="358.5" y="-247.8" font-family="Helvetica,sans-Serif" font-size="11.00">Centrálna</text>
<text xml:space="preserve" text-anchor="middle" x="358.5" y="-234.3" font-family="Helvetica,sans-Serif" font-size="11.00">riadiaca jednotka</text>
</g>
<!-- broker -->
<g id="node2" class="node">
<title>broker</title>
<ellipse fill="#ffe8d8" stroke="#e07a50" stroke-width="2" cx="266.5" cy="-135.75" rx="45.25" ry="18"/>
<text xml:space="preserve" text-anchor="middle" x="266.5" y="-132.25" font-family="Helvetica,sans-Serif" font-size="10.00">MQTT Broker</text>
</g>
<!-- rpi&#45;&gt;broker -->
<g id="edge1" class="edge">
<title>rpi&#45;&gt;broker</title>
<path fill="none" stroke="#1a1a2e" stroke-width="2" d="M318.31,-225.56C318.31,-194.34 318.31,-136 318.31,-136 318.31,-136 316.01,-136 312.37,-136"/>
</g>
<!-- dashboard -->
<g id="node3" class="node">
<title>dashboard</title>
<path fill="#eae4ff" stroke="#b09ee0" stroke-width="1.8" d="M485.12,-153.75C485.12,-153.75 409.88,-153.75 409.88,-153.75 403.88,-153.75 397.88,-147.75 397.88,-141.75 397.88,-141.75 397.88,-129.75 397.88,-129.75 397.88,-123.75 403.88,-117.75 409.88,-117.75 409.88,-117.75 485.12,-117.75 485.12,-117.75 491.12,-117.75 497.12,-123.75 497.12,-129.75 497.12,-129.75 497.12,-141.75 497.12,-141.75 497.12,-147.75 491.12,-153.75 485.12,-153.75"/>
<text xml:space="preserve" text-anchor="middle" x="447.5" y="-132.25" font-family="Helvetica,sans-Serif" font-size="10.00">Webový dashboard</text>
</g>
<!-- rpi&#45;&gt;dashboard -->
<g id="edge2" class="edge">
<title>rpi&#45;&gt;dashboard</title>
<path fill="none" stroke="#1a1a2e" stroke-width="2" d="M402.44,-225.51C402.44,-205.47 402.44,-174.27 402.44,-154.43"/>
</g>
<!-- esp_relay -->
<g id="node5" class="node">
<title>esp_relay</title>
<polygon fill="#d0eeff" stroke="#7bbce8" stroke-width="1.8" points="73,-36 0,-36 0,0 73,0 73,-36"/>
<text xml:space="preserve" text-anchor="middle" x="36.5" y="-20.5" font-family="Helvetica,sans-Serif" font-size="10.00">ESP32</text>
<text xml:space="preserve" text-anchor="middle" x="36.5" y="-8.5" font-family="Helvetica,sans-Serif" font-size="10.00">Reléový uzol</text>
</g>
<!-- broker&#45;&gt;esp_relay -->
<g id="edge4" class="edge">
<title>broker&#45;&gt;esp_relay</title>
<path fill="none" stroke="#4a9fd4" stroke-width="1.2" d="M210.69,-136C210.69,-136 36.5,-136 36.5,-136 36.5,-136 36.5,-46.16 36.5,-46.16"/>
<polygon fill="#4a9fd4" stroke="#4a9fd4" stroke-width="1.2" points="210.69,-138.8 218.69,-136 210.69,-133.2 210.69,-138.8"/>
<polygon fill="#4a9fd4" stroke="#4a9fd4" stroke-width="1.2" points="36.5,-38.16 40.1,-46.16 36.6,-40.7 36.6,-46.16 36.5,-46.16 36.4,-46.16 36.4,-40.7 32.9,-46.16 36.5,-38.16"/>
<text xml:space="preserve" text-anchor="middle" x="97.12" y="-74.15" font-family="Helvetica,sans-Serif" font-size="8.00"> &#160;Wi&#45;Fi / MQTT</text>
</g>
<!-- esp_motor -->
<g id="node6" class="node">
<title>esp_motor</title>
<polygon fill="#d0eeff" stroke="#7bbce8" stroke-width="1.8" points="238.38,-36 158.62,-36 158.62,0 238.38,0 238.38,-36"/>
<text xml:space="preserve" text-anchor="middle" x="198.5" y="-20.5" font-family="Helvetica,sans-Serif" font-size="10.00">ESP32</text>
<text xml:space="preserve" text-anchor="middle" x="198.5" y="-8.5" font-family="Helvetica,sans-Serif" font-size="10.00">Motorický uzol</text>
</g>
<!-- broker&#45;&gt;esp_motor -->
<g id="edge5" class="edge">
<title>broker&#45;&gt;esp_motor</title>
<path fill="none" stroke="#4a9fd4" stroke-width="1.2" d="M229.81,-114.64C229.81,-114.64 229.81,-46.22 229.81,-46.22"/>
<polygon fill="#4a9fd4" stroke="#4a9fd4" stroke-width="1.2" points="227.01,-114.64 229.81,-122.64 232.61,-114.64 227.01,-114.64"/>
<polygon fill="#4a9fd4" stroke="#4a9fd4" stroke-width="1.2" points="229.81,-38.22 233.41,-46.22 229.91,-40.76 229.91,-46.22 229.81,-46.22 229.71,-46.22 229.71,-40.76 226.21,-46.22 229.81,-38.22"/>
<text xml:space="preserve" text-anchor="middle" x="241.12" y="-74.15" font-family="Helvetica,sans-Serif" font-size="8.00"> &#160;Wi&#45;Fi / MQTT</text>
</g>
<!-- esp_input -->
<g id="node7" class="node">
<title>esp_input</title>
<polygon fill="#d0eeff" stroke="#7bbce8" stroke-width="1.8" points="406.12,-36 324.88,-36 324.88,0 406.12,0 406.12,-36"/>
<text xml:space="preserve" text-anchor="middle" x="365.5" y="-20.5" font-family="Helvetica,sans-Serif" font-size="10.00">ESP32</text>
<text xml:space="preserve" text-anchor="middle" x="365.5" y="-8.5" font-family="Helvetica,sans-Serif" font-size="10.00">Tlačidlový uzol</text>
</g>
<!-- broker&#45;&gt;esp_input -->
<g id="edge6" class="edge">
<title>broker&#45;&gt;esp_input</title>
<path fill="none" stroke="#4a9fd4" stroke-width="1.2" d="M275.06,-107.28C275.06,-107.28 275.06,-18 275.06,-18 275.06,-18 314.52,-18 314.52,-18"/>
<polygon fill="#4a9fd4" stroke="#4a9fd4" stroke-width="1.2" points="272.26,-107.28 275.06,-115.28 277.86,-107.28 272.26,-107.28"/>
<polygon fill="#4a9fd4" stroke="#4a9fd4" stroke-width="1.2" points="322.52,-18 314.52,-21.6 319.99,-18.1 314.52,-18.1 314.52,-18 314.52,-17.9 319.99,-17.9 314.52,-14.4 322.52,-18"/>
<text xml:space="preserve" text-anchor="middle" x="385.12" y="-74.15" font-family="Helvetica,sans-Serif" font-size="8.00"> &#160;Wi&#45;Fi / MQTT</text>
</g>
<!-- browser -->
<g id="node4" class="node">
<title>browser</title>
<polygon fill="#f8f8fc" stroke="#c8c8dc" stroke-width="1.2" stroke-dasharray="5,2" points="563.25,-36 491.75,-36 491.75,0 563.25,0 563.25,-36"/>
<text xml:space="preserve" text-anchor="middle" x="527.5" y="-15.28" font-family="Helvetica,sans-Serif" font-size="8.00">Obsluha múzea</text>
</g>
<!-- dashboard&#45;&gt;browser -->
<g id="edge3" class="edge">
<title>dashboard&#45;&gt;browser</title>
<path fill="none" stroke="#8b6fcc" stroke-width="1.2" stroke-dasharray="5,2" d="M507.8,-136C507.8,-136 530.19,-136 530.19,-136 530.19,-136 530.19,-45.9 530.19,-45.9"/>
<polygon fill="#8b6fcc" stroke="#8b6fcc" stroke-width="1.2" points="507.8,-133.2 499.8,-136 507.8,-138.8 507.8,-133.2"/>
<polygon fill="#8b6fcc" stroke="#8b6fcc" stroke-width="1.2" points="530.19,-37.9 533.79,-45.9 530.29,-40.44 530.29,-45.9 530.19,-45.9 530.09,-45.9 530.09,-40.44 526.59,-45.9 530.19,-37.9"/>
<text xml:space="preserve" text-anchor="middle" x="536.25" y="-74.15" font-family="Helvetica,sans-Serif" font-size="8.00"> &#160;Socket.IO / HTTP</text>
</g>
</g>
</svg>
