<?xml version="1.0" encoding="UTF-8" standalone="no"?>
<!DOCTYPE svg PUBLIC "-//W3C//DTD SVG 1.1//EN"
 "http://www.w3.org/Graphics/SVG/1.1/DTD/svg11.dtd">
<!-- Generated by graphviz version 14.1.3 (20260303.0454)
 -->
<!-- Title: state_anatomy Pages: 1 -->
<svg width="1964pt" height="1777pt"
 viewBox="0.00 0.00 1964.00 1777.00" xmlns="http://www.w3.org/2000/svg" xmlns:xlink="http://www.w3.org/1999/xlink">
<g id="graph0" class="graph" transform="scale(4.16667 4.16667) rotate(0) translate(36 390.5)">
<title>state_anatomy</title>
<polygon fill="#f8f8fc" stroke="none" points="-36,36 -36,-390.5 435.25,-390.5 435.25,36 -36,36"/>
<!-- state -->
<g id="node1" class="node">
<title>state</title>
<path fill="#edf5ff" stroke="none" d="M13,-1C13,-1 386.25,-1 386.25,-1 392.25,-1 398.25,-7 398.25,-13 398.25,-13 398.25,-341.5 398.25,-341.5 398.25,-347.5 392.25,-353.5 386.25,-353.5 386.25,-353.5 13,-353.5 13,-353.5 7,-353.5 1,-347.5 1,-341.5 1,-341.5 1,-13 1,-13 1,-7 7,-1 13,-1"/>
<polygon fill="#4a9fd4" stroke="none" points="2,-317.5 2,-352.5 397.25,-352.5 397.25,-317.5 2,-317.5"/>
<text xml:space="preserve" text-anchor="start" x="12" y="-331.15" font-family="Helvetica,sans-Serif" font-weight="bold" font-size="13.00" fill="#ffffff">STATE_EXAMPLE</text>
<polygon fill="#edf5ff" stroke="none" points="2,-287.75 2,-317.5 397.25,-317.5 397.25,-287.75 2,-287.75"/>
<text xml:space="preserve" text-anchor="start" x="9" y="-298.2" font-family="Helvetica,sans-Serif" font-size="7.00" fill="#5a88aa">description:</text>
<text xml:space="preserve" text-anchor="start" x="45" y="-298.2" font-family="Helvetica,sans-Serif" font-size="14.00"> </text>
<text xml:space="preserve" text-anchor="start" x="48.75" y="-298.2" font-family="Helvetica,sans-Serif" font-style="italic" font-size="7.00" fill="#5a88aa">&quot;Example state showcasing all available properties&quot;</text>
<polygon fill="#7bbce8" stroke="none" points="2,-286.75 2,-287.75 397.25,-287.75 397.25,-286.75 2,-286.75"/>
<polygon fill="#c8f5e8" stroke="none" points="2,-108 2,-286.75 147.75,-286.75 147.75,-108 2,-108"/>
<polygon fill="none" stroke="#7dd4b0" points="2,-108 2,-286.75 147.75,-286.75 147.75,-108 2,-108"/>
<polygon fill="#c8f5e8" stroke="none" points="3,-109 3,-285.75 146.75,-285.75 146.75,-109 3,-109"/>
<polygon fill="#3aaf80" stroke="none" points="3,-259.39 3,-285.75 146.75,-285.75 146.75,-259.39 3,-259.39"/>
<text xml:space="preserve" text-anchor="start" x="58" y="-270.27" font-family="Helvetica,sans-Serif" font-weight="bold" font-size="9.00" fill="#ffffff">onEnter</text>
<polygon fill="#a8e8cc" stroke="none" points="3,-252.54 3,-259.39 146.75,-259.39 146.75,-252.54 3,-252.54"/>
<text xml:space="preserve" text-anchor="start" x="10" y="-237.96" font-family="Helvetica,sans-Serif" font-weight="bold" font-size="8.00" fill="#2e7a40">mqtt</text>
<text xml:space="preserve" text-anchor="start" x="10" y="-225.21" font-family="Helvetica,sans-Serif" font-size="7.00" fill="#7a7a9a">  topic: </text>
<text xml:space="preserve" text-anchor="start" x="34" y="-225.21" font-family="Helvetica,sans-Serif" font-style="italic" font-size="7.00" fill="#7a7a9a">&quot;room1/light/fire&quot;</text>
<text xml:space="preserve" text-anchor="start" x="10" y="-213" font-family="Helvetica,sans-Serif" font-size="7.00" fill="#7a7a9a">  message: </text>
<text xml:space="preserve" text-anchor="start" x="47.5" y="-213" font-family="Helvetica,sans-Serif" font-style="italic" font-size="7.00" fill="#7a7a9a">&quot;ON&quot;</text>
<polygon fill="#a8e8cc" stroke="none" points="3,-195.57 3,-202.43 146.75,-202.43 146.75,-195.57 3,-195.57"/>
<text xml:space="preserve" text-anchor="start" x="10" y="-180.51" font-family="Helvetica,sans-Serif" font-weight="bold" font-size="8.00" fill="#6040b0">audio</text>
<text xml:space="preserve" text-anchor="start" x="10" y="-166.78" font-family="Helvetica,sans-Serif" font-size="7.00" fill="#7a7a9a">  message: </text>
<text xml:space="preserve" text-anchor="start" x="47.5" y="-166.78" font-family="Helvetica,sans-Serif" font-style="italic" font-size="7.00" fill="#7a7a9a">&quot;PLAY:intro.wav:1&quot;</text>
<polygon fill="#a8e8cc" stroke="none" points="3,-148.86 3,-155.71 146.75,-155.71 146.75,-148.86 3,-148.86"/>
<text xml:space="preserve" text-anchor="start" x="10" y="-133.79" font-family="Helvetica,sans-Serif" font-weight="bold" font-size="8.00" fill="#b05020">video</text>
<text xml:space="preserve" text-anchor="start" x="10" y="-120.06" font-family="Helvetica,sans-Serif" font-size="7.00" fill="#7a7a9a">  message: </text>
<text xml:space="preserve" text-anchor="start" x="47.5" y="-120.06" font-family="Helvetica,sans-Serif" font-style="italic" font-size="7.00" fill="#7a7a9a">&quot;PLAY_VIDEO:clip.mp4&quot;</text>
<polygon fill="#eae4ff" stroke="none" points="147.75,-108 147.75,-286.75 278.5,-286.75 278.5,-108 147.75,-108"/>
<polygon fill="none" stroke="#b09ee0" points="147.75,-108 147.75,-286.75 278.5,-286.75 278.5,-108 147.75,-108"/>
<polygon fill="#eae4ff" stroke="none" points="148.75,-109 148.75,-285.75 277.5,-285.75 277.5,-109 148.75,-109"/>
<polygon fill="#8b6fcc" stroke="none" points="148.75,-265.25 148.75,-285.75 277.5,-285.75 277.5,-265.25 148.75,-265.25"/>
<text xml:space="preserve" text-anchor="start" x="196.25" y="-273.2" font-family="Helvetica,sans-Serif" font-weight="bold" font-size="9.00" fill="#ffffff">timeline</text>
<polygon fill="#ccc4f0" stroke="none" points="148.75,-264.25 148.75,-265.25 277.5,-265.25 277.5,-264.25 148.75,-264.25"/>
<text xml:space="preserve" text-anchor="start" x="155.75" y="-250.65" font-family="Helvetica,sans-Serif" font-weight="bold" font-size="8.00" fill="#2e7a40">@ 1.4 s</text>
<text xml:space="preserve" text-anchor="start" x="155.75" y="-239.85" font-family="Helvetica,sans-Serif" font-size="7.00" fill="#7a7a9a">  action: </text>
<text xml:space="preserve" text-anchor="start" x="183.5" y="-239.85" font-family="Helvetica,sans-Serif" font-style="italic" font-size="7.00" fill="#7a7a9a">mqtt</text>
<text xml:space="preserve" text-anchor="start" x="155.75" y="-229.6" font-family="Helvetica,sans-Serif" font-size="7.00" fill="#7a7a9a">  topic: </text>
<text xml:space="preserve" text-anchor="start" x="179.75" y="-229.6" font-family="Helvetica,sans-Serif" font-style="italic" font-size="7.00" fill="#7a7a9a">&quot;room1/light/2&quot;</text>
<text xml:space="preserve" text-anchor="start" x="155.75" y="-219.35" font-family="Helvetica,sans-Serif" font-size="7.00" fill="#7a7a9a">  message: </text>
<text xml:space="preserve" text-anchor="start" x="193.25" y="-219.35" font-family="Helvetica,sans-Serif" font-style="italic" font-size="7.00" fill="#7a7a9a">&quot;ON&quot;</text>
<polygon fill="#ccc4f0" stroke="none" points="148.75,-208.75 148.75,-209.75 277.5,-209.75 277.5,-208.75 148.75,-208.75"/>
<text xml:space="preserve" text-anchor="start" x="155.75" y="-195.15" font-family="Helvetica,sans-Serif" font-weight="bold" font-size="8.00" fill="#6040b0">@ 5 s</text>
<text xml:space="preserve" text-anchor="start" x="155.75" y="-184.35" font-family="Helvetica,sans-Serif" font-size="7.00" fill="#7a7a9a">  action: </text>
<text xml:space="preserve" text-anchor="start" x="183.5" y="-184.35" font-family="Helvetica,sans-Serif" font-style="italic" font-size="7.00" fill="#7a7a9a">audio</text>
<text xml:space="preserve" text-anchor="start" x="155.75" y="-174.1" font-family="Helvetica,sans-Serif" font-size="7.00" fill="#7a7a9a">  message: </text>
<text xml:space="preserve" text-anchor="start" x="193.25" y="-174.1" font-family="Helvetica,sans-Serif" font-style="italic" font-size="7.00" fill="#7a7a9a">&quot;PLAY:sfx.wav:0.8&quot;</text>
<polygon fill="#ccc4f0" stroke="none" points="148.75,-163.5 148.75,-164.5 277.5,-164.5 277.5,-163.5 148.75,-163.5"/>
<text xml:space="preserve" text-anchor="start" x="155.75" y="-149.9" font-family="Helvetica,sans-Serif" font-weight="bold" font-size="8.00" fill="#2e7a40">@ 10 s</text>
<text xml:space="preserve" text-anchor="start" x="155.75" y="-139.1" font-family="Helvetica,sans-Serif" font-size="7.00" fill="#7a7a9a">  action: </text>
<text xml:space="preserve" text-anchor="start" x="183.5" y="-139.1" font-family="Helvetica,sans-Serif" font-style="italic" font-size="7.00" fill="#7a7a9a">actions</text>
<text xml:space="preserve" text-anchor="start" x="155.75" y="-128.85" font-family="Helvetica,sans-Serif" font-size="7.00" fill="#7a7a9a">  [0]: </text>
<text xml:space="preserve" text-anchor="start" x="173" y="-128.85" font-family="Helvetica,sans-Serif" font-style="italic" font-size="7.00" fill="#7a7a9a">mqtt</text>
<text xml:space="preserve" text-anchor="start" x="155.75" y="-118.6" font-family="Helvetica,sans-Serif" font-size="7.00" fill="#7a7a9a">  [1]: </text>
<text xml:space="preserve" text-anchor="start" x="173" y="-118.6" font-family="Helvetica,sans-Serif" font-style="italic" font-size="7.00" fill="#7a7a9a">mqtt</text>
<polygon fill="#ffe8d8" stroke="none" points="278.5,-108 278.5,-286.75 397.25,-286.75 397.25,-108 278.5,-108"/>
<polygon fill="none" stroke="#f0a882" points="278.5,-108 278.5,-286.75 397.25,-286.75 397.25,-108 278.5,-108"/>
<polygon fill="#ffe8d8" stroke="none" points="279.5,-109 279.5,-285.75 396.25,-285.75 396.25,-109 279.5,-109"/>
<polygon fill="#e07a50" stroke="none" points="279.5,-259.39 279.5,-285.75 396.25,-285.75 396.25,-259.39 279.5,-259.39"/>
<text xml:space="preserve" text-anchor="start" x="324.38" y="-270.27" font-family="Helvetica,sans-Serif" font-weight="bold" font-size="9.00" fill="#ffffff">onExit</text>
<polygon fill="#f5c8aa" stroke="none" points="279.5,-252.54 279.5,-259.39 396.25,-259.39 396.25,-252.54 279.5,-252.54"/>
<text xml:space="preserve" text-anchor="start" x="286.5" y="-237.47" font-family="Helvetica,sans-Serif" font-weight="bold" font-size="8.00" fill="#6040b0">audio</text>
<text xml:space="preserve" text-anchor="start" x="286.5" y="-223.74" font-family="Helvetica,sans-Serif" font-size="7.00" fill="#7a7a9a">  message: </text>
<text xml:space="preserve" text-anchor="start" x="324" y="-223.74" font-family="Helvetica,sans-Serif" font-style="italic" font-size="7.00" fill="#7a7a9a">&quot;STOP&quot;</text>
<polygon fill="#f5c8aa" stroke="none" points="279.5,-205.82 279.5,-212.68 396.25,-212.68 396.25,-205.82 279.5,-205.82"/>
<text xml:space="preserve" text-anchor="start" x="286.5" y="-191.25" font-family="Helvetica,sans-Serif" font-weight="bold" font-size="8.00" fill="#2e7a40">mqtt</text>
<text xml:space="preserve" text-anchor="start" x="286.5" y="-178.49" font-family="Helvetica,sans-Serif" font-size="7.00" fill="#7a7a9a">  topic: </text>
<text xml:space="preserve" text-anchor="start" x="310.5" y="-178.49" font-family="Helvetica,sans-Serif" font-style="italic" font-size="7.00" fill="#7a7a9a">&quot;room1/motor1&quot;</text>
<text xml:space="preserve" text-anchor="start" x="286.5" y="-166.29" font-family="Helvetica,sans-Serif" font-size="7.00" fill="#7a7a9a">  message: </text>
<text xml:space="preserve" text-anchor="start" x="324" y="-166.29" font-family="Helvetica,sans-Serif" font-style="italic" font-size="7.00" fill="#7a7a9a">&quot;STOP&quot;</text>
<polygon fill="#f5c8aa" stroke="none" points="279.5,-148.86 279.5,-155.71 396.25,-155.71 396.25,-148.86 279.5,-148.86"/>
<text xml:space="preserve" text-anchor="start" x="286.5" y="-133.79" font-family="Helvetica,sans-Serif" font-weight="bold" font-size="8.00" fill="#b05020">video</text>
<text xml:space="preserve" text-anchor="start" x="286.5" y="-120.06" font-family="Helvetica,sans-Serif" font-size="7.00" fill="#7a7a9a">  message: </text>
<text xml:space="preserve" text-anchor="start" x="324" y="-120.06" font-family="Helvetica,sans-Serif" font-style="italic" font-size="7.00" fill="#7a7a9a">&quot;STOP_VIDEO&quot;</text>
<polygon fill="#c8a000" stroke="none" points="2,-85.5 2,-108 397.25,-108 397.25,-85.5 2,-85.5"/>
<text xml:space="preserve" text-anchor="start" x="176.75" y="-94.45" font-family="Helvetica,sans-Serif" font-weight="bold" font-size="9.00" fill="#ffffff">transitions</text>
<polygon fill="#e0c840" stroke="none" points="2,-84.5 2,-85.5 397.25,-85.5 397.25,-84.5 2,-84.5"/>
<polygon fill="#fff8c0" stroke="none" points="2,-2 2,-84.5 397.25,-84.5 397.25,-2 2,-2"/>
<polygon fill="#ffffff" stroke="none" points="14,-14 14,-72.5 103.25,-72.5 103.25,-14 14,-14"/>
<polygon fill="none" stroke="#a0b8d8" points="14,-14 14,-72.5 103.25,-72.5 103.25,-14 14,-14"/>
<text xml:space="preserve" text-anchor="start" x="23" y="-55.19" font-family="Helvetica,sans-Serif" font-weight="bold" font-size="8.00" fill="#2060a0">timeout</text>
<text xml:space="preserve" text-anchor="start" x="23" y="-40.98" font-family="Helvetica,sans-Serif" font-size="7.00" fill="#7a7a9a">  delay: </text>
<text xml:space="preserve" text-anchor="start" x="48.5" y="-40.98" font-family="Helvetica,sans-Serif" font-style="italic" font-size="7.00" fill="#7a7a9a">30</text>
<text xml:space="preserve" text-anchor="start" x="23" y="-27.31" font-family="Helvetica,sans-Serif" font-size="7.00" fill="#7a7a9a">  goto: </text>
<text xml:space="preserve" text-anchor="start" x="45.5" y="-27.31" font-family="Helvetica,sans-Serif" font-style="italic" font-size="7.00" fill="#7a7a9a">&quot;STATE_NEXT&quot;</text>
<polygon fill="#ffffff" stroke="none" points="107.25,-14 107.25,-72.5 198.75,-72.5 198.75,-14 107.25,-14"/>
<polygon fill="none" stroke="#a0c8a8" points="107.25,-14 107.25,-72.5 198.75,-72.5 198.75,-14 107.25,-14"/>
<text xml:space="preserve" text-anchor="start" x="116.25" y="-56.9" font-family="Helvetica,sans-Serif" font-weight="bold" font-size="8.00" fill="#2e7a40">mqttMessage</text>
<text xml:space="preserve" text-anchor="start" x="116.25" y="-46.1" font-family="Helvetica,sans-Serif" font-size="7.00" fill="#7a7a9a">  topic: </text>
<text xml:space="preserve" text-anchor="start" x="140.25" y="-46.1" font-family="Helvetica,sans-Serif" font-style="italic" font-size="7.00" fill="#7a7a9a">&quot;room1/button1&quot;</text>
<text xml:space="preserve" text-anchor="start" x="116.25" y="-35.85" font-family="Helvetica,sans-Serif" font-size="7.00" fill="#7a7a9a">  message: </text>
<text xml:space="preserve" text-anchor="start" x="153.75" y="-35.85" font-family="Helvetica,sans-Serif" font-style="italic" font-size="7.00" fill="#7a7a9a">&quot;PRESS&quot;</text>
<text xml:space="preserve" text-anchor="start" x="116.25" y="-25.6" font-family="Helvetica,sans-Serif" font-size="7.00" fill="#7a7a9a">  goto: </text>
<text xml:space="preserve" text-anchor="start" x="138.75" y="-25.6" font-family="Helvetica,sans-Serif" font-style="italic" font-size="7.00" fill="#7a7a9a">&quot;END&quot;</text>
<polygon fill="#ffffff" stroke="none" points="202.75,-14 202.75,-72.5 292,-72.5 292,-14 202.75,-14"/>
<polygon fill="none" stroke="#d8b090" points="202.75,-14 202.75,-72.5 292,-72.5 292,-14 202.75,-14"/>
<text xml:space="preserve" text-anchor="start" x="211.75" y="-55.19" font-family="Helvetica,sans-Serif" font-weight="bold" font-size="8.00" fill="#b05020">videoEnd</text>
<text xml:space="preserve" text-anchor="start" x="211.75" y="-40.98" font-family="Helvetica,sans-Serif" font-size="7.00" fill="#7a7a9a">  target: </text>
<text xml:space="preserve" text-anchor="start" x="238.75" y="-40.98" font-family="Helvetica,sans-Serif" font-style="italic" font-size="7.00" fill="#7a7a9a">&quot;clip.mp4&quot;</text>
<text xml:space="preserve" text-anchor="start" x="211.75" y="-27.31" font-family="Helvetica,sans-Serif" font-size="7.00" fill="#7a7a9a">  goto: </text>
<text xml:space="preserve" text-anchor="start" x="234.25" y="-27.31" font-family="Helvetica,sans-Serif" font-style="italic" font-size="7.00" fill="#7a7a9a">&quot;STATE_NEXT&quot;</text>
<polygon fill="#ffffff" stroke="none" points="296,-14 296,-72.5 385.25,-72.5 385.25,-14 296,-14"/>
<polygon fill="none" stroke="#c0b0e0" points="296,-14 296,-72.5 385.25,-72.5 385.25,-14 296,-14"/>
<text xml:space="preserve" text-anchor="start" x="305" y="-55.19" font-family="Helvetica,sans-Serif" font-weight="bold" font-size="8.00" fill="#8b6fcc">always</text>
<text xml:space="preserve" text-anchor="start" x="305" y="-40.98" font-family="Helvetica,sans-Serif" font-size="7.00" fill="#7a7a9a">  delay: </text>
<text xml:space="preserve" text-anchor="start" x="330.5" y="-40.98" font-family="Helvetica,sans-Serif" font-style="italic" font-size="7.00" fill="#7a7a9a">0</text>
<text xml:space="preserve" text-anchor="start" x="305" y="-27.31" font-family="Helvetica,sans-Serif" font-size="7.00" fill="#7a7a9a">  goto: </text>
<text xml:space="preserve" text-anchor="start" x="327.5" y="-27.31" font-family="Helvetica,sans-Serif" font-style="italic" font-size="7.00" fill="#7a7a9a">&quot;STATE_NEXT&quot;</text>
<path fill="none" stroke="#7bbce8" stroke-width="2" d="M13,-1C13,-1 386.25,-1 386.25,-1 392.25,-1 398.25,-7 398.25,-13 398.25,-13 398.25,-341.5 398.25,-341.5 398.25,-347.5 392.25,-353.5 386.25,-353.5 386.25,-353.5 13,-353.5 13,-353.5 7,-353.5 1,-347.5 1,-341.5 1,-341.5 1,-13 1,-13 1,-7 7,-1 13,-1"/>
</g>
</g>
</svg>
